<?xml version="1.0" standalone="no"?>
<!DOCTYPE svg PUBLIC "-//W3C//DTD SVG 1.1//EN" "http://www.w3.org/Graphics/SVG/1.1/DTD/svg11.dtd" >
<svg>
<metadata>
Created by FontForge 20090914 at Fri Jan  4 02:30:59 2013
 By www-data
Copyright 1990-1998 Bitstream Inc.  All rights reserved.
</metadata>
<defs>
<font id="FranklinGothicITCbyBT-Demi" horiz-adv-x="1024" >
  <font-face 
    font-family="FrnkGothITC Bk BT"
    font-weight="700"
    font-stretch="normal"
    units-per-em="2048"
    panose-1="2 11 8 4 3 5 2 2 2 4"
    ascent="1556"
    descent="-492"
    x-height="1053"
    cap-height="1421"
    bbox="-342 -483 2417 2007"
    underline-thickness="205"
    underline-position="-99"
    unicode-range="U+0020-U+F002"
  />
<missing-glyph horiz-adv-x="1229" 
d="M102 -362v1806h1024v-1806h-1024zM217 -248h795v1577h-795v-1577z" />
    <glyph glyph-name=".notdef" horiz-adv-x="1229" 
d="M102 -362v1806h1024v-1806h-1024zM217 -248h795v1577h-795v-1577z" />
    <glyph glyph-name="space" unicode=" " horiz-adv-x="623" 
 />
    <glyph glyph-name="exclam" unicode="!" horiz-adv-x="684" 
d="M250 418l-109 1003h396l-109 -1003h-178zM176 0v313h326v-313h-326z" />
    <glyph glyph-name="quotedbl" unicode="&#x22;" horiz-adv-x="678" 
d="M406 1438h192v-559h-192v559zM80 1438h192v-559h-192v559z" />
    <glyph glyph-name="numbersign" unicode="#" horiz-adv-x="1575" 
d="M709 848l-88 -244h251l86 244h-249zM709 1464h221l-146 -415h242l148 415h221l-148 -415h283l-74 -201h-280l-84 -242h290l-71 -200h-291l-148 -416h-221l148 416h-244l-149 -416h-220l146 416h-287l76 200h282l86 242h-299l74 201h297z" />
    <glyph glyph-name="dollar" unicode="$" horiz-adv-x="1245" 
d="M729 254c58 0 104.667 14.833 140 44.5s53 68.167 53 115.5c0 44 -16.333 80 -49 108s-80.667 46.667 -144 56v-324zM555 877v303.999c-54.667 -1.33301 -98 -15.666 -130 -42.999s-48 -63.333 -48 -108c0 -42 15.667 -76.5 47 -103.5s75 -43.5 131 -49.5zM549 -154.001
l0.000976562 193.001c-124.667 14 -226 50.5 -304 109.5s-134.333 141.833 -169 248.5l243 70c20.667 -62.667 51 -111.5 91 -146.5s88.333 -55.167 145 -60.5v350c-140 20.667 -247.333 64 -322 130s-112 150.333 -112 253c0 113.333 38.333 205.666 115 276.999
s181 111 313 119v157h190v-160c98 -12 180.667 -43 248 -93s117.333 -117 150 -201l-222 -80c-20.667 46.667 -46.5 83.334 -77.5 110.001s-67.167 44 -108.5 52v-326c151.333 -22.667 264.666 -67.167 339.999 -133.5s113 -154.833 113 -265.5
c0 -114.667 -38.833 -207.834 -116.5 -279.501s-186.5 -114.5 -326.5 -128.5v-195h-190z" />
    <glyph glyph-name="percent" unicode="%" horiz-adv-x="1657" 
d="M1407 348c0 72 -11.333 126.833 -34 164.5s-55.667 56.5 -99 56.5c-42.667 0 -75.5 -19.333 -98.5 -58s-34.5 -94.334 -34.5 -167.001c0 -71.333 11.5 -126 34.5 -164s55.833 -57 98.5 -57s75.5 19.333 98.5 58s34.5 94.334 34.5 167.001zM1272 721
c106.667 0 191.665 -33.999 254.998 -101.999s95 -159.667 95 -275c0 -110.667 -32.167 -200.167 -96.5 -268.5s-148.166 -102.5 -251.499 -102.5c-107.333 0 -192.166 33.667 -254.499 101s-93.5 158.666 -93.5 273.999c0 112.667 31.5 203 94.5 271s146.833 102 251.5 102
zM513.998 1081c0 72 -11.332 126.5 -33.999 163.5s-55.667 55.5 -99 55.5c-42 0 -74.667 -19.333 -98 -58s-35 -93 -35 -163c0 -71.333 11.667 -126.333 35 -165s56.666 -58 99.999 -58s76 19 98 57s33 94 33 168zM380.999 1452c106 0 190.501 -33.999 253.501 -101.999
s94.5 -159.667 94.5 -275c0 -110.667 -31.833 -200 -95.5 -268s-147.167 -102 -250.5 -102c-106.667 0 -191.667 33.667 -255 101s-95 157.666 -95 270.999c0 114 31.667 205 95 273s147.666 102 252.999 102zM305 -11.998l864 1446h181l-863 -1446h-182z" />
    <glyph glyph-name="ampersand" unicode="&#x26;" horiz-adv-x="1434" 
d="M657 926c51.333 22 90.167 48.8301 116.5 80.4971s39.5 66.834 39.5 105.501c0 40.667 -13.667 74.334 -41 101.001s-62 40 -104 40c-38 0 -68.667 -11.5 -92 -34.5s-35 -53.167 -35 -90.5c0 -26.667 9.5 -56.667 28.5 -90s48.167 -70.666 87.5 -111.999z
M956.001 105.997c-57.333 -45.333 -119.669 -79.1689 -187.002 -101.502s-140 -33.5 -218 -33.5c-154.667 0 -280.334 41 -377.001 123s-145 187.333 -145 316c0 100.667 29.667 186 89 256s146.333 122.333 261 157c-42.667 56.667 -73.834 108.5 -93.501 155.5
s-29.5 92.833 -29.5 137.5c0 99.333 36.833 180.166 110.5 242.499s169.834 93.5 288.501 93.5c126 0 226.833 -31 302.5 -93s113.5 -143.667 113.5 -245c0 -77.333 -24.333 -145.666 -73 -204.999s-120.667 -107.666 -216 -144.999l201 -277
c36.667 43.333 67.667 92.333 93 147s44.333 113.667 57 177l286 -41c-24 -92 -57.167 -177.833 -99.5 -257.5s-93.166 -152.167 -152.499 -217.5c14.667 -18.667 34.334 -32.834 59.001 -42.501s53.667 -14.5 87 -14.5c16.667 0 34 1 52 3s36.667 5 56 9l2 -246
c-40 -9.33301 -72.167 -15.666 -96.5 -18.999s-45.833 -5 -64.5 -5c-59.333 0 -114.166 10.333 -164.499 31s-97.5 52.334 -141.5 95.001zM796.998 290.994l-283.001 373c-54 -24 -95.167 -55.667 -123.5 -95s-42.5 -85 -42.5 -137c0 -64 21.333 -116.5 64 -157.5
s97 -61.5 163 -61.5c38 0 75.333 6.5 112 19.5s73.334 32.5 110.001 58.5z" />
    <glyph glyph-name="quotesingle" unicode="'" horiz-adv-x="352" 
d="M80 1438h192v-559h-192v559z" />
    <glyph glyph-name="parenleft" unicode="(" horiz-adv-x="678" 
d="M449 -326c-104.667 141.333 -183.167 285.5 -235.5 432.5s-78.5 296.5 -78.5 448.5c0 152.667 26 302.167 78 448.5s129.667 289.833 233 430.5h201c-95.333 -144 -166.166 -288 -212.499 -432s-69.5 -293 -69.5 -447c0 -154.667 23.167 -304.167 69.5 -448.5
s117.166 -288.5 212.499 -432.5h-198z" />
    <glyph glyph-name="parenright" unicode=")" horiz-adv-x="678" 
d="M31 -326c94.667 142.667 165 286.334 211 431.001s69 294.667 69 450c0 154.667 -23 304.167 -69 448.5s-116.333 287.833 -211 430.5h198c104 -141.333 182.333 -285.333 235 -432s79 -295.667 79 -447s-26.167 -300.333 -78.5 -447s-130.833 -291.334 -235.5 -434.001
h-198z" />
    <glyph glyph-name="asterisk" unicode="*" 
d="M410 1440h204l-57 -357l320 168l65 -202l-356 -52l258 -254l-172 -127l-160 326l-160 -326l-172 127l258 254l-356 52l65 202l320 -168z" />
    <glyph glyph-name="plus" unicode="+" horiz-adv-x="1706" 
d="M752 1221h202v-510h498v-199h-498v-512h-202v512h-498v199h498v510z" />
    <glyph glyph-name="comma" unicode="," horiz-adv-x="623" 
d="M147 -8v321h332v-290l-196 -363h-144l156 332h-148z" />
    <glyph glyph-name="hyphen" unicode="-" horiz-adv-x="711" 
d="M98 408v247h514v-247h-514z" />
    <glyph glyph-name="period" unicode="." horiz-adv-x="623" 
d="M143 0v322h336v-322h-336z" />
    <glyph glyph-name="slash" unicode="/" horiz-adv-x="569" 
d="M-72 -190l516 1640h174l-518 -1640h-172z" />
    <glyph glyph-name="zero" unicode="0" horiz-adv-x="1245" 
d="M623 205c75.333 0 133 42.667 173 128s60 208.333 60 369c0 168.667 -19.833 297 -59.5 385s-97.5 132 -173.5 132s-133.667 -43 -173 -129s-59 -211.667 -59 -377s19.833 -291.333 59.5 -378s97.167 -130 172.5 -130zM623 -27c-166.667 0 -300.832 67.5 -402.499 202.5
s-152.5 314.167 -152.5 537.5s50.667 402 152 536s235.666 201 402.999 201c166 0 300.333 -67.333 403 -202s154 -313 154 -535c0 -222.667 -51.333 -401.667 -154 -537s-237 -203 -403 -203z" />
    <glyph glyph-name="one" unicode="1" horiz-adv-x="1245" 
d="M162 0l0.000976562 245.999h383v850c-58.667 -44.667 -116.834 -82.5 -174.501 -113.5s-114.167 -54.833 -169.5 -71.5v260c91.333 28 172.333 65.333 243 112s129.667 102.334 177 167.001h231v-1204h365v-246h-1055z" />
    <glyph glyph-name="two" unicode="2" horiz-adv-x="1245" 
d="M88 0l-0.000976562 258.001c304 219.333 501.5 377 592.5 473s136.5 182 136.5 258c0 60 -19.667 109.5 -59 148.5s-89.333 58.5 -150 58.5c-72.667 0 -129.667 -24 -171 -72s-63.666 -116 -66.999 -204l-282 65c28.667 149.333 90 264.166 184 344.499
s214.333 120.5 361 120.5c150 0 271.833 -42.5 365.5 -127.5s140.5 -194.833 140.5 -329.5c0 -107.333 -46.833 -215.333 -140.5 -324s-255.167 -238.667 -484.5 -390h635l-10 -279h-1051z" />
    <glyph glyph-name="three" unicode="3" horiz-adv-x="1245" 
d="M29 391l285.999 48.999c18.667 -73.333 52 -128.833 100 -166.5s109 -56.5 183 -56.5c70 0 127.5 18.667 172.5 56s67.5 85 67.5 143c0 58.667 -23 106.667 -69 144s-105.667 56 -179 56h-187v236h166c73.333 0 130.333 15.167 171 45.5s61 72.5 61 126.5
c0 53.333 -19 97 -57 131s-86.667 51 -146 51c-62.667 0 -114.334 -16 -155.001 -48s-67.667 -78 -81 -138l-278 49c32.667 122.667 94.5 217.167 185.5 283.5s203.833 99.5 338.5 99.5c150 0 271.5 -36.333 364.5 -109s139.5 -166 139.5 -280
c0 -76 -21.667 -142.833 -65 -200.5s-101.666 -96.834 -174.999 -117.501c90 -21.333 160.333 -62.666 211 -123.999s76 -135.333 76 -222c0 -125.333 -50.167 -228 -150.5 -308s-231.166 -120 -392.499 -120c-156.667 0 -284.5 35.333 -383.5 106
s-166.833 175.334 -203.5 314.001z" />
    <glyph glyph-name="four" unicode="4" horiz-adv-x="1245" 
d="M700 567v586l-374 -586h374zM692 0v326h-618v231l579 893h340v-883h213v-241h-213v-326h-301z" />
    <glyph glyph-name="five" unicode="5" horiz-adv-x="1245" 
d="M70 358l283.999 50.002c17.333 -60 48 -106.5 92 -139.5s96.667 -49.5 158 -49.5c74.667 0 136 23.167 184 69.5s72 105.166 72 176.499c0 67.333 -23.5 124.166 -70.5 170.499s-104.833 69.5 -173.5 69.5c-50 0 -93.667 -11 -131 -33s-68.666 -55 -93.999 -99l-250 39
l49 809h910l-29 -276h-641l-18 -314c42.667 37.333 87.167 64.5 133.5 81.5s99.5 25.5 159.5 25.5c137.333 0 250.5 -43.833 339.5 -131.5s133.5 -199.5 133.5 -335.5c0 -65.333 -10.833 -126 -32.5 -182s-53.167 -106 -94.5 -150
c-51.333 -54 -113.166 -95.833 -185.499 -125.5s-149.833 -44.5 -232.5 -44.5c-150.667 0 -273.834 33.167 -369.501 99.5s-160.167 162.833 -193.5 289.5z" />
    <glyph glyph-name="six" unicode="6" horiz-adv-x="1245" 
d="M402 730c36.667 60 85.668 107.002 147.001 141.002s128.333 51 201 51c127.333 0 232.5 -42.833 315.5 -128.5s124.5 -193.834 124.5 -324.501c0 -60 -10.833 -118 -32.5 -174s-53.167 -107.333 -94.5 -154c-48 -54 -106.5 -95.833 -175.5 -125.5
s-142.833 -44.5 -221.5 -44.5c-184 0 -328 62.333 -432 187s-156 298 -156 520c0 238.667 53.667 427 161 565s253.666 207 438.999 207c124.667 0 228.834 -33.333 312.501 -100s139.167 -160.334 166.5 -281.001l-283 -45c-10.667 60 -33.5 106.333 -68.5 139
s-78.833 49 -131.5 49c-89.333 0 -156.833 -40.5 -202.5 -121.5s-68.834 -201.167 -69.501 -360.5zM653.001 207.002c63.333 0 116.5 22.833 159.5 68.5s64.5 102.5 64.5 170.5c0 68.667 -20.667 125.167 -62 169.5s-93.333 66.5 -156 66.5c-70 0 -128 -22.5 -174 -67.5
s-69 -101.833 -69 -170.5c0 -68 22.5 -124.5 67.5 -169.5s101.5 -67.5 169.5 -67.5z" />
    <glyph glyph-name="seven" unicode="7" horiz-adv-x="1245" 
d="M358 -16c5.33301 216.667 48.667 423.166 130 619.499s198 376.833 350 541.5h-699l23 276h979v-204c-137.333 -167.333 -242.333 -349 -315 -545s-109 -394 -109 -594c0 -25.333 0.166992 -44.666 0.5 -57.999s0.833008 -25.333 1.5 -36h-361z" />
    <glyph glyph-name="eight" unicode="8" horiz-adv-x="1245" 
d="M326 715c-72 33.333 -126.667 77.668 -164 133.001s-56 118.666 -56 189.999c0 120.667 48.333 219.834 145 297.501s222 116.5 376 116.5c158 0 283.167 -33.833 375.5 -101.5s138.5 -158.834 138.5 -273.501c0 -70 -18.667 -130.667 -56 -182s-93 -93 -167 -125
c92.667 -38 161.834 -88 207.501 -150s68.5 -137.667 68.5 -227c0 -124.667 -53 -226.167 -159 -304.5s-245 -117.5 -417 -117.5c-174 0 -311.667 36 -413 108s-152 169.333 -152 292c0 80.667 22.667 149.667 68 207s113.666 103 204.999 137zM678 856.002
c60.667 18 106.5 43.832 137.5 77.499s46.5 74.167 46.5 121.5c0 50 -22.5 92.5 -67.5 127.5s-100.833 52.5 -167.5 52.5c-66 0 -119.833 -15 -161.5 -45s-62.5 -68.333 -62.5 -115c0 -46 22.167 -86.667 66.5 -122s113.833 -67.666 208.5 -96.999zM545 604.001
c-67.333 -20 -118.334 -48.168 -153.001 -84.501s-52 -79.166 -52 -128.499c0 -62.667 25.167 -112.167 75.5 -148.5s119.5 -54.5 207.5 -54.5c78 0 140.5 15.667 187.5 47s70.5 72.333 70.5 123c0 51.333 -25.667 95.833 -77 133.5s-137.666 75.167 -258.999 112.5z" />
    <glyph glyph-name="nine" unicode="9" horiz-adv-x="1245" 
d="M858 694c-32.667 -60.667 -79.1689 -107.831 -139.502 -141.498s-128.5 -50.5 -204.5 -50.5c-128.667 0 -234.834 42.667 -318.501 128s-125.5 193.333 -125.5 324c0 60 10.833 118 32.5 174s53.167 107.333 94.5 154c47.333 54 105.5 95.5 174.5 124.5
s143.167 43.5 222.5 43.5c184.667 0 328.834 -61.833 432.501 -185.5s155.5 -296.834 155.5 -519.501c0 -238.667 -53.833 -427.334 -161.5 -566.001s-253.834 -208 -438.501 -208c-114 0 -211.167 29.333 -291.5 88s-139.5 142.667 -177.5 252l274 47
c22.667 -50.667 50.334 -88.167 83.001 -112.5s71.334 -36.5 116.001 -36.5c89.333 0 156.833 40.667 202.5 122s68.834 202.333 69.501 363zM605.998 1217c-63.333 0 -116.333 -23.166 -159 -69.499s-64 -103.833 -64 -172.5c0 -69.333 21 -126 63 -170s95.333 -66 160 -66
c66.667 0 123 23.167 169 69.5s69 103.166 69 170.499c0 68 -22.5 124.667 -67.5 170s-101.833 68 -170.5 68z" />
    <glyph glyph-name="colon" unicode=":" horiz-adv-x="623" 
d="M143 731v322h336v-322h-336zM143 0v322h336v-322h-336z" />
    <glyph glyph-name="semicolon" unicode=";" horiz-adv-x="623" 
d="M143 -8v321h336v-290l-198 -363h-142l156 332h-152zM143 731v322h336v-322h-336z" />
    <glyph glyph-name="less" unicode="&#x3c;" horiz-adv-x="1706" 
d="M1442 1194v-219l-893 -365l893 -364v-219l-1178 485v199z" />
    <glyph glyph-name="equal" unicode="=" horiz-adv-x="1706" 
d="M254 496h1198v-199h-1198v199zM254 926h1198v-199h-1198v199z" />
    <glyph glyph-name="greater" unicode="&#x3e;" horiz-adv-x="1706" 
d="M264 1194l1178 -483v-199l-1178 -485v219l895 364l-895 365v219z" />
    <glyph glyph-name="question" unicode="?" horiz-adv-x="1151" 
d="M397 0v307h320v-307h-320zM414 408l0.00195312 105.996c0 48.667 6.66699 90.834 20 126.501s34 66.5 62 92.5c12.667 12.667 37.5 32.834 74.5 60.501s65.833 50.5 86.5 68.5c24.667 20.667 43.834 46.5 57.501 77.5s20.5 63.833 20.5 98.5
c0 54.667 -16.667 98.5 -50 131.5s-78 49.5 -134 49.5c-64.667 0 -115.834 -23.167 -153.501 -69.5s-57.5 -110.5 -59.5 -192.5l-289 36c20.667 146.667 77.167 259.834 169.5 339.501s212.833 119.5 361.5 119.5c68.667 0 132.667 -9.66699 192 -29
s109.333 -46.666 150 -81.999c48.667 -41.333 86 -88.666 112 -141.999s39 -109 39 -167c0 -42.667 -5 -81.667 -15 -117s-26 -70 -48 -104c-29.333 -45.333 -99.333 -103 -210 -173c-16.667 -10 -29.334 -18 -38.001 -24c-26.667 -17.333 -47.334 -38.333 -62.001 -63
s-22 -51.334 -22 -80.001v-63h-264z" />
    <glyph glyph-name="at" unicode="@" horiz-adv-x="2048" 
d="M1167 272c-36.667 -56 -79 -97.1602 -127 -123.493s-104.667 -39.5 -170 -39.5c-105.333 0 -185.5 28.667 -240.5 86s-82.5 142 -82.5 254c0 159.333 46.5 293 139.5 401s207.5 162 343.5 162c53.333 0 99.666 -11 138.999 -33s71.666 -54.667 96.999 -98l53 98h178
l-147 -598c-2 -7.33301 -3.66699 -14.833 -5 -22.5s-2 -13.834 -2 -18.501c0 -23.333 8 -40.833 24 -52.5s39.667 -17.5 71 -17.5c26 0 53.167 6.66699 81.5 20s54.833 32 79.5 56c57.333 53.333 100.833 115.666 130.5 186.999s44.5 149.666 44.5 234.999
c0 160 -61.833 291.5 -185.5 394.5s-283.167 154.5 -478.5 154.5c-94 0 -181.5 -11.333 -262.5 -34s-154.5 -56.334 -220.5 -101.001c-113.333 -76 -200.5 -171 -261.5 -285s-91.5 -239 -91.5 -375c0 -204.667 69 -368.167 207 -490.5s322.333 -183.5 553 -183.5
c108 0 213.5 16.333 316.5 49s198.833 80 287.5 142l82 -117c-102 -76.667 -210.167 -134.334 -324.5 -173.001s-233.5 -58 -357.5 -58c-128 0 -245.667 16.167 -353 48.5s-202.666 80.166 -285.999 143.499c-103.333 80.667 -180.666 173.667 -231.999 279
s-77 224.666 -77 357.999c0 111.333 17.5 217.5 52.5 318.5s86.5 192.833 154.5 275.5c98.667 120.667 217.334 212 356.001 274s293 93 463 93c112.667 0 218.5 -15.167 317.5 -45.5s185.167 -73.166 258.5 -128.499c90 -70 157.167 -149.833 201.5 -239.5
s66.5 -190.834 66.5 -303.501c0 -110 -21.833 -211.5 -65.5 -304.5s-106.5 -172.5 -188.5 -238.5c-46.667 -37.333 -97.5 -65.833 -152.5 -85.5s-112.167 -29.5 -171.5 -29.5c-70.667 0 -123.834 14 -159.501 42s-54.167 69.333 -55.5 124zM1217 700.007
c-8.66699 54 -27.833 95.167 -57.5 123.5s-68.834 42.5 -117.501 42.5c-76 0 -142 -41.333 -198 -124s-84 -182 -84 -298c0 -61.333 13.5 -108 40.5 -140s66.167 -48 117.5 -48c55.333 0 105.833 21 151.5 63s76.834 96.667 93.501 164z" />
    <glyph glyph-name="A" unicode="A" horiz-adv-x="1235" 
d="M-18 0l450 1421h361l452 -1421h-340l-102 340h-445l-100 -340h-276zM424 580h315l-159 526z" />
    <glyph glyph-name="B" unicode="B" horiz-adv-x="1307" 
d="M123 0l-0.000976562 1421h631c146 0 257.833 -31.167 335.5 -93.5s116.5 -151.833 116.5 -268.5c0 -80.667 -21 -148.334 -63 -203.001s-102 -92.334 -180 -113.001c94.667 -24 165.334 -65.667 212.001 -125s70 -137 70 -233c0 -124.667 -43 -220 -129 -286
s-210.333 -99 -373 -99h-620zM433.999 248.002h260c72 0 127.667 15.5 167 46.5s59 74.833 59 131.5c0 60.667 -20.333 107.167 -61 139.5s-99 48.5 -175 48.5h-250v-366zM433.999 850.002h248c66 0 116.667 14.667 152 44s53 71.333 53 126c0 51.333 -17 90.833 -51 118.5
s-82.667 41.5 -146 41.5h-256v-330z" />
    <glyph glyph-name="C" unicode="C" horiz-adv-x="1305" 
d="M942 895c-6.66699 94 -32 167.665 -76 220.998s-100.667 80 -170 80c-92.667 0 -163.167 -41.333 -211.5 -124s-72.5 -203 -72.5 -361c0 -158.667 23.833 -278 71.5 -358s118.5 -120 212.5 -120c68 0 123.5 24 166.5 72s72.167 118.333 87.5 211l303 -31
c-24 -162.667 -84.833 -288.667 -182.5 -378s-223.834 -134 -378.501 -134c-191.333 0 -343.166 66.333 -455.499 199s-168.5 312.334 -168.5 539.001c0 225.333 56.667 404.833 170 538.5s265.333 200.5 456 200.5c158 0 285.833 -46.167 383.5 -138.5
s156.167 -222.166 175.5 -389.499z" />
    <glyph glyph-name="D" unicode="D" horiz-adv-x="1403" 
d="M135 0v1423h502c90 0 171 -8.5 243 -25.5s133 -42.5 183 -76.5c94 -62 167 -146.333 219 -253s78 -225.667 78 -357c0 -221.333 -65.167 -395.166 -195.5 -521.499s-309.5 -189.5 -537.5 -189.5h-492zM463 1169v-911h184c112 0 199 39.5 261 118.5s93 190.5 93 334.5
s-31 256.333 -93 337s-149 121 -261 121h-184z" />
    <glyph glyph-name="E" unicode="E" horiz-adv-x="1210" 
d="M135 0v1421h1006v-256h-686v-309h553v-240h-553v-356h696v-260h-1016z" />
    <glyph glyph-name="F" unicode="F" horiz-adv-x="1112" 
d="M135 0v1421h979v-256h-647v-325h508v-246h-508v-594h-332z" />
    <glyph glyph-name="G" unicode="G" horiz-adv-x="1368" 
d="M1120 -6l-57.002 158c-36.667 -54 -89 -95.833 -157 -125.5s-145.333 -44.5 -232 -44.5c-182.667 0 -329.334 66.333 -440.001 199s-166 310 -166 532c0 224.667 58.5 403.667 175.5 537s274.167 200 471.5 200c150.667 0 274.834 -40.5 372.501 -121.5
s161.834 -196.833 192.501 -347.5l-313 -41c-18.667 82 -50.667 145.167 -96 189.5s-100.666 66.5 -165.999 66.5c-94.667 0 -166.167 -40.833 -214.5 -122.5s-72.5 -202.5 -72.5 -362.5c0 -157.333 25.333 -275.5 76 -354.5s126.334 -118.5 227.001 -118.5
c71.333 0 131.166 22.167 179.499 66.5s73.833 100.833 76.5 169.5l2 46h-289v240h600v-766h-170z" />
    <glyph glyph-name="H" unicode="H" horiz-adv-x="1401" 
d="M135 0v1421h332v-553h467v553h332v-1421h-332v608h-467v-608h-332z" />
    <glyph glyph-name="I" unicode="I" horiz-adv-x="614" 
d="M137 0v1421h338v-1421h-338z" />
    <glyph glyph-name="J" unicode="J" horiz-adv-x="860" 
d="M389 485v935.999h334v-938c0 -181.333 -37.333 -311.666 -112 -390.999s-197 -119 -367 -119c-38 0 -77 2.66699 -117 8s-82.333 13.666 -127 24.999v266c33.333 -8 64.333 -14 93 -18s55.667 -6 81 -6c78 0 133.333 17.833 166 53.5s49 96.834 49 183.501z" />
    <glyph glyph-name="K" unicode="K" horiz-adv-x="1294" 
d="M135 0v1421h309v-680l482 680h315l-367 -503l467 -918h-356l-326 657l-215 -284v-373h-309z" />
    <glyph glyph-name="L" unicode="L" horiz-adv-x="1038" 
d="M135 0v1421h334v-1159h592v-262h-926z" />
    <glyph glyph-name="M" unicode="M" horiz-adv-x="1743" 
d="M135 0v1421h436l301 -940l283 940h453v-1421h-314l4 1130l-348 -1130h-215l-348 1133l8 -1133h-260z" />
    <glyph glyph-name="N" unicode="N" horiz-adv-x="1415" 
d="M135 0v1421h340l541 -915l-10 915h274v-1421h-283l-600 1018l11 -1018h-273z" />
    <glyph glyph-name="O" unicode="O" horiz-adv-x="1409" 
d="M705 233c90 0 159.833 41.668 209.5 125.001s74.5 201.666 74.5 354.999s-24.667 271.5 -74 354.5s-119.333 124.5 -210 124.5s-160.5 -41.333 -209.5 -124s-73.5 -201 -73.5 -355s24.5 -272.5 73.5 -355.5s118.833 -124.5 209.5 -124.5zM705 -26.999
c-191.333 0 -345.333 67.5 -462 202.5s-175 314.167 -175 537.5c0 222.667 58.167 401.167 174.5 535.5s270.5 201.5 462.5 201.5c191.333 0 345.5 -67.333 462.5 -202s175.5 -313 175.5 -535c0 -222.667 -58.5 -401.667 -175.5 -537s-271.167 -203 -462.5 -203z" />
    <glyph glyph-name="P" unicode="P" horiz-adv-x="1274" 
d="M467 782h180c78.667 0 138.667 16.833 180 50.5s62 82.5 62 146.5c0 59.333 -19.5 105.833 -58.5 139.5s-92.5 50.5 -160.5 50.5h-203v-387zM135 0v1421h557c181.333 0 318.5 -37.5 411.5 -112.5s139.5 -185.5 139.5 -331.5c0 -130 -46.333 -235.167 -139 -315.5
s-215 -120.5 -367 -120.5h-270v-541h-332z" />
    <glyph glyph-name="Q" unicode="Q" horiz-adv-x="1409" 
d="M799 -10c-21.333 -4 -42.166 -7.16699 -62.499 -9.5s-39.833 -3.5 -58.5 -3.5c-76.667 0 -149.167 14 -217.5 42s-129.833 68.667 -184.5 122c-69.333 68.667 -121.333 150.667 -156 246s-52 204 -52 326c0 222.667 58.167 401.167 174.5 535.5s270.5 201.5 462.5 201.5
c190.667 0 344.667 -67.333 462 -202s176 -313 176 -535c0 -140 -27 -263.167 -81 -369.5s-136 -197.833 -246 -274.5c2 -36 15.833 -64 41.5 -84s61.5 -30 107.5 -30c18.667 0 39.5 1.33301 62.5 4s48.833 6.66699 77.5 12l8 -252
c-32.667 -5.33301 -63.5 -9.33301 -92.5 -12s-55.5 -4 -79.5 -4c-100.667 0 -180.334 24.5 -239.001 73.5s-93 120.167 -103 213.5zM989 713c0 153.333 -24.667 271.5 -74 354.5s-119.333 124.5 -210 124.5s-160.5 -41.333 -209.5 -124s-73.5 -201 -73.5 -355
s24.5 -272.5 73.5 -355.5s118.833 -124.5 209.5 -124.5s160.667 41.5 210 124.5s74 201.5 74 355.5z" />
    <glyph glyph-name="R" unicode="R" horiz-adv-x="1350" 
d="M135 0v1421h617c178.667 0 313 -34.167 403 -102.5s135 -170.5 135 -306.5c0 -92.667 -21.333 -170.834 -64 -234.501s-106 -111.167 -190 -142.5l269 -635h-353l-235 573h-252v-573h-330zM711 1180h-246v-369h244c77.333 0 136.833 16.333 178.5 49s62.5 79 62.5 139
c0 59.333 -20.333 104.333 -61 135s-100 46 -178 46z" />
    <glyph glyph-name="S" unicode="S" horiz-adv-x="1313" 
d="M41 399l308.996 60.001c20 -72.667 58.333 -128.5 115 -167.5s127.667 -58.5 213 -58.5c66.667 0 120.834 15.167 162.501 45.5s62.5 69.833 62.5 118.5c0 75.333 -89.333 136.333 -268 183l-47 12c-7.33301 2 -17.666 4.66699 -30.999 8
c-163.333 42 -278.666 95.333 -345.999 160c-33.333 31.333 -58.666 68 -75.999 110s-26 88 -26 138c0 131.333 51 238.166 153 320.499s236.667 123.5 404 123.5c134 0 247.5 -30.333 340.5 -91s160.833 -149 203.5 -265l-284 -78
c-22.667 61.333 -56.834 107.666 -102.501 138.999s-102.5 47 -170.5 47c-62.667 0 -113.5 -14.5 -152.5 -43.5s-58.5 -66.167 -58.5 -111.5c0 -68 82.667 -123.333 248 -166c26.667 -6.66699 48 -12.334 64 -17.001c6 -1.33301 15.333 -3.66602 28 -6.99902
c155.333 -40 266 -86.667 332 -140c43.333 -35.333 76 -77.666 98 -126.999s33 -105.333 33 -168c0 -130.667 -54.667 -238.5 -164 -323.5s-250.666 -127.5 -423.999 -127.5c-159.333 0 -293 37.5 -401 112.5s-179.667 179.5 -215 313.5z" />
    <glyph glyph-name="T" unicode="T" horiz-adv-x="983" 
d="M657 1163v-1163h-331v1163h-328v258h987v-258h-328z" />
    <glyph glyph-name="U" unicode="U" horiz-adv-x="1343" 
d="M127 1421l334.001 0.000976562v-917c0 -94 19.5 -162.667 58.5 -206s100.833 -65 185.5 -65c78.667 0 138.5 23.5 179.5 70.5s61.5 115.833 61.5 206.5v911h264v-936c0 -170 -45.333 -298.167 -136 -384.5s-226 -129.5 -406 -129.5c-108.667 0 -203 17.833 -283 53.5
s-144 88.167 -192 157.5c-22.667 33.333 -39.334 75.166 -50.001 125.499s-16 112.5 -16 186.5v927z" />
    <glyph glyph-name="V" unicode="V" horiz-adv-x="1235" 
d="M455 0l-465 1421h344l313 -1054l320 1054h282l-467 -1421h-327z" />
    <glyph glyph-name="W" unicode="W" horiz-adv-x="1778" 
d="M354 0l-366 1421h317l236 -983l239 983h269l243 -972l238 972h264l-373 -1421h-295l-235 936l-229 -936h-308z" />
    <glyph glyph-name="X" unicode="X" horiz-adv-x="1163" 
d="M-53 0l461 739l-428 682h380l256 -440l263 440h303l-410 -661l469 -760h-379l-303 510l-303 -510h-309z" />
    <glyph glyph-name="Y" unicode="Y" horiz-adv-x="1106" 
d="M399 0v606l-473 815h363l303 -551l297 551h295l-455 -809v-612h-330z" />
    <glyph glyph-name="Z" unicode="Z" horiz-adv-x="1188" 
d="M43 0v223l684 944h-643v254h1049v-211l-691 -950h711v-260h-1110z" />
    <glyph glyph-name="bracketleft" unicode="[" horiz-adv-x="678" 
d="M174 -326v1747h428v-129h-213v-1487h213v-131h-428z" />
    <glyph glyph-name="backslash" unicode="\" horiz-adv-x="569" 
d="M-49 1450h174l516 -1640h-174z" />
    <glyph glyph-name="bracketright" unicode="]" horiz-adv-x="678" 
d="M76 -326v131h213v1487h-213v129h428v-1747h-428z" />
    <glyph glyph-name="asciicircum" unicode="^" horiz-adv-x="2048" 
d="M897 1460h252l481 -561h-235l-371 371l-373 -371h-235z" />
    <glyph glyph-name="underscore" unicode="_" 
d="M0 -279h1024v-204h-1024v204z" />
    <glyph glyph-name="grave" unicode="`" 
d="M537 1192l-308 362h244l199 -362h-135z" />
    <glyph glyph-name="a" unicode="a" horiz-adv-x="1171" 
d="M793 0c-6 23.333 -10.6719 48.834 -14.0049 76.501s-5.66602 58.5 -6.99902 92.5c-36 -63.333 -83.667 -111.833 -143 -145.5s-127.666 -50.5 -204.999 -50.5c-113.333 0 -203.166 29 -269.499 87s-99.5 136.333 -99.5 235c0 124.667 59.833 219.167 179.5 283.5
s296.834 97.5 531.501 99.5v45c0 53.333 -14.833 93.666 -44.5 120.999s-73.5 41 -131.5 41c-64 0 -114.5 -12.5 -151.5 -37.5s-59.5 -61.833 -67.5 -110.5l-287 31c24.667 103.333 80.834 181.333 168.501 234s205.5 79 353.5 79c164 0 281.833 -32 353.5 -96
s107.5 -169 107.5 -315v-467c0 -46.667 2.5 -86.5 7.5 -119.5s12.833 -60.833 23.5 -83.5h-305zM765.995 516.001c-125.333 -2 -221.167 -20.332 -287.5 -54.999s-99.5 -84 -99.5 -148c0 -43.333 14 -77 42 -101s67.333 -36 118 -36c64.667 0 118.667 23.167 162 69.5
s65 105.166 65 176.499v94z" />
    <glyph glyph-name="b" unicode="b" horiz-adv-x="1169" 
d="M414 399c0 -66.667 15.498 -118.833 46.498 -156.5s74.167 -56.5 129.5 -56.5c62.667 0 110.334 28 143.001 84s49 138 49 246c0 120.667 -15.667 209.5 -47 266.5s-80.333 85.5 -147 85.5c-49.333 0 -90.666 -18.833 -123.999 -56.5s-50 -85.5 -50 -143.5v-269z
M108.998 -3.99902l-0.000976562 1425h305v-514c23.333 53.333 61.5 95.666 114.5 126.999s112.5 47 178.5 47c118.667 0 215.167 -49.5 289.5 -148.5s111.5 -228.833 111.5 -389.5c0 -170 -40.667 -307.167 -122 -411.5s-187.333 -156.5 -318 -156.5
c-67.333 0 -129.166 15.833 -185.499 47.5s-105.833 78.167 -148.5 139.5l-60 -166h-165z" />
    <glyph glyph-name="c" unicode="c" horiz-adv-x="1075" 
d="M752 653c-9.33301 68 -29.166 120.834 -59.499 158.501s-67.833 56.5 -112.5 56.5c-64 0 -112.5 -28.667 -145.5 -86s-49.5 -142 -49.5 -254c0 -110 16.833 -194.5 50.5 -253.5s81.834 -88.5 144.501 -88.5c49.333 0 90.166 19.167 122.499 57.5
s52.166 90.833 59.499 157.5l268 -30c-14 -122 -63.333 -219.167 -148 -291.5s-191 -108.5 -319 -108.5c-149.333 0 -271 51.333 -365 154s-141 235.667 -141 399c0 168 48.333 302.833 145 404.5s224.667 152.5 384 152.5c121.333 0 221.333 -35.333 300 -106
s126.667 -168.334 144 -293.001z" />
    <glyph glyph-name="d" unicode="d" horiz-adv-x="1169" 
d="M1061 1421l0.00292969 -1421h-287l-2 162c-34.667 -62 -76.334 -109 -125.001 -141s-103.334 -48 -164.001 -48c-128.667 0 -230.834 49.333 -306.501 148s-113.5 232.334 -113.5 401.001s38.167 303.667 114.5 405s176.833 152 301.5 152
c55.333 0 105.833 -12 151.5 -36s87.5 -60.333 125.5 -109v487h305zM756.003 654.999c0 66.667 -15.8311 118.169 -47.498 154.502s-76.834 54.5 -135.501 54.5c-59.333 0 -104.833 -28.833 -136.5 -86.5s-47.5 -140.834 -47.5 -249.501
c0 -110.667 15.667 -193.834 47 -249.501s78.666 -83.5 141.999 -83.5c50.667 0 93 20.333 127 61s51 92.667 51 156v243z" />
    <glyph glyph-name="e" unicode="e" horiz-adv-x="1186" 
d="M1120 322c-34.667 -112 -97.168 -198.501 -187.501 -259.501s-200.5 -91.5 -330.5 -91.5c-163.333 0 -295 50.667 -395 152s-150 235 -150 401c0 162.667 52.333 296.167 157 400.5s238.667 156.5 402 156.5c158.667 0 283.334 -50.167 374.001 -150.5
s136 -238.5 136 -414.5v-43h-741c0 -91.333 19.833 -161.666 59.5 -210.999s96.167 -74 169.5 -74c52 0 96.333 13.833 133 41.5s62 66.5 76 116.5zM388.999 644.999l418 1c-1.33301 75.333 -20 133.333 -56 174s-87 61 -153 61c-62 0 -111.333 -20.833 -148 -62.5
s-57 -99.5 -61 -173.5z" />
    <glyph glyph-name="f" unicode="f" horiz-adv-x="715" 
d="M166 0v848h-166v205h166v37c0 120.667 29.333 210.167 88 268.5s148.667 87.5 270 87.5c42 0 83.5 -2 124.5 -6s81.5 -10.333 121.5 -19v-207c-40.667 6 -73.167 10 -97.5 12s-46.5 3 -66.5 3c-50.667 0 -88.5 -12.167 -113.5 -36.5s-37.5 -61.5 -37.5 -111.5
c0 -2 0.333008 -6.33301 1 -13s1 -11.667 1 -15h262v-205h-256v-848h-297z" />
    <glyph glyph-name="g" unicode="g" horiz-adv-x="1137" 
d="M354 33c-22.667 -12 -39.832 -26.666 -51.499 -43.999s-17.5 -37 -17.5 -59c0 -44.667 24.5 -77.334 73.5 -98.001s127.5 -31 235.5 -31c99.333 0 169.833 9.33301 211.5 28s62.5 49 62.5 91c0 28 -11.833 49.5 -35.5 64.5s-60.834 24.167 -111.501 27.5z
M569.002 907.001c-51.333 0 -92.833 -16.001 -124.5 -48.001s-47.5 -74 -47.5 -126c0 -54 15.333 -96.5 46 -127.5s72.667 -46.5 126 -46.5c54 0 96.167 15.5 126.5 46.5s45.5 73.5 45.5 127.5c0 52.667 -15.667 94.834 -47 126.501s-73 47.5 -125 47.5zM262.002 477
c-52.667 28.667 -92.833 64.499 -120.5 107.499s-41.5 91.167 -41.5 144.5c0 102.667 42.5 186 127.5 250s196.833 96 335.5 96c38 0 75 -3.16699 111 -9.5s71.333 -16.166 106 -29.499c8.66699 76 33.667 132.333 75 169s101 55 179 55c12.667 0 38 -1 76 -3
c11.333 -0.666992 20.333 -1.33398 27 -2.00098l-7 -217c-2.66699 0.666992 -6.33398 1 -11.001 1c-29.333 2 -50 3 -62 3c-42 0 -73.667 -5.83301 -95 -17.5s-35.333 -30.834 -42 -57.501c36.667 -36 64.167 -74 82.5 -114s27.5 -82 27.5 -126
c0 -103.333 -39.667 -184.833 -119 -244.5s-188.333 -89.5 -327 -89.5c-32.667 0 -62.5 1.33301 -89.5 4s-51.833 7 -74.5 13c-22 -9.33301 -38.5 -20.166 -49.5 -32.499s-16.5 -26.166 -16.5 -41.499c0 -24.667 8.5 -43.334 25.5 -56.001s43.5 -20 79.5 -22l321 -14
c113.333 -5.33301 202.833 -34.333 268.5 -87s98.5 -121.334 98.5 -206.001c0 -104 -47.833 -184.667 -143.5 -242s-230.834 -86 -405.501 -86c-196.667 0 -342.5 22.5 -437.5 67.5s-142.5 114.167 -142.5 207.5c0 46.667 14.167 87.834 42.5 123.501
s67.5 61.834 117.5 78.501c-33.333 18.667 -58.666 41.5 -75.999 68.5s-26 57.5 -26 91.5c0 51.333 15.333 95 46 131s77.334 64.667 140.001 86z" />
    <glyph glyph-name="h" unicode="h" horiz-adv-x="1163" 
d="M117 0v1421h303v-501c36 54 78.333 94.333 127 121s104.667 40 168 40c116 0 202 -32.5 258 -97.5s84 -165.5 84 -301.5v-682h-305v662c0 64.667 -12 113.5 -36 146.5s-60 49.5 -108 49.5c-56 0 -101.333 -21.667 -136 -65s-52 -100.666 -52 -171.999v-621h-303z" />
    <glyph glyph-name="i" unicode="i" horiz-adv-x="545" 
d="M115 0v1053h315v-1053h-315zM115 1188v233h315v-233h-315z" />
    <glyph glyph-name="j" unicode="j" horiz-adv-x="557" 
d="M127 1421h313v-233h-313v233zM127 1053l312.999 -0.000976562v-1049c0 -138.667 -28.5 -239.5 -85.5 -302.5s-147.833 -94.5 -272.5 -94.5c-25.333 0 -54.166 1.5 -86.499 4.5s-67.5 7.5 -105.5 13.5l-1 225c26 -3.33301 46.833 -5.83301 62.5 -7.5s28.5 -2.5 38.5 -2.5
c52 0 87.833 12.333 107.5 37s29.5 77.334 29.5 158.001v1018z" />
    <glyph glyph-name="k" unicode="k" horiz-adv-x="1128" 
d="M111 0v1421h305v-819l393 451h289l-324 -353l367 -700h-324l-250 489l-151 -170v-319h-305z" />
    <glyph glyph-name="l" unicode="l" horiz-adv-x="545" 
d="M115 0v1421h315v-1421h-315z" />
    <glyph glyph-name="m" unicode="m" horiz-adv-x="1745" 
d="M993 895c40 61.333 86.832 106.999 140.499 136.999s115.5 45 185.5 45c104.667 0 184 -29.833 238 -89.5s81 -147.167 81 -262.5v-725h-301v676c0 54.667 -11.5 97 -34.5 127s-55.833 45 -98.5 45c-53.333 0 -96.666 -21.167 -129.999 -63.5s-50 -98.5 -50 -168.5v-616
h-301v672c0 58 -11 101.833 -33 131.5s-54.667 44.5 -98 44.5c-51.333 0 -93.166 -19.667 -125.499 -59s-48.5 -90.666 -48.5 -153.999v-635h-301v1053h280v-160c36 60.667 79.167 106.5 129.5 137.5s107.5 46.5 171.5 46.5c72.667 0 133.167 -14.833 181.5 -44.5
s86.166 -75.5 113.499 -137.5z" />
    <glyph glyph-name="n" unicode="n" horiz-adv-x="1163" 
d="M117 0v1053h282v-168c34 64 77.667 112.667 131 146s115 50 185 50c116 0 202 -32.5 258 -97.5s84 -165.5 84 -301.5v-682h-305v662c0 64.667 -12 113.5 -36 146.5s-60 49.5 -108 49.5c-56 0 -101.333 -21.667 -136 -65s-52 -100.666 -52 -171.999v-621h-303z" />
    <glyph glyph-name="o" unicode="o" horiz-adv-x="1178" 
d="M588 184c66.667 0 117.5 29.333 152.5 88s52.5 143.334 52.5 254.001c0 111.333 -17.667 196.5 -53 255.5s-86 88.5 -152 88.5c-66.667 0 -117.167 -29 -151.5 -87s-51.5 -143.667 -51.5 -257c0 -112.667 17 -197.834 51 -255.501s84.667 -86.5 152 -86.5zM588 -29
c-158.667 0 -286.832 51.001 -384.499 153.001s-146.5 236 -146.5 402c0 166.667 48.667 300.834 146 402.501s225.666 152.5 384.999 152.5c160 0 288.667 -50.833 386 -152.5s146 -235.834 146 -402.501s-48.667 -300.834 -146 -402.501s-226 -152.5 -386 -152.5z" />
    <glyph glyph-name="p" unicode="p" horiz-adv-x="1147" 
d="M115 -365v1418h288v-164c35.333 63.333 76.333 110.166 123 140.499s100.667 45.5 162 45.5c116 0 209.167 -50.167 279.5 -150.5s105.5 -234.5 105.5 -402.5c0 -160.667 -38.5 -292 -115.5 -394s-174.167 -153 -291.5 -153c-56 0 -104 11.333 -144 34
s-74.667 58 -104 106v-480h-303zM418 449.001c0 -82.667 13.834 -145.667 41.501 -189s67.834 -65 120.501 -65c56 0 98 27.333 126 82s42 137 42 247c0 106 -13.833 186.5 -41.5 241.5s-67.834 82.5 -120.501 82.5c-48.667 0 -88.834 -22.5 -120.501 -67.5
s-47.5 -102.5 -47.5 -172.5v-159z" />
    <glyph glyph-name="q" unicode="q" horiz-adv-x="1167" 
d="M1059 1059l0.000976562 -1424h-303v506c-30.667 -52.667 -69.334 -93.5 -116.001 -122.5s-97.667 -43.5 -153 -43.5c-129.333 0 -232.333 48.667 -309 146s-115 229 -115 395c0 170.667 40.5 307.167 121.5 409.5s188.167 153.5 321.5 153.5
c70 0 132.5 -15.167 187.5 -45.5s100.167 -74.5 135.5 -132.5l68 158h162zM756.001 659c0 68.667 -15.501 122.5 -46.501 161.5s-73.5 58.5 -127.5 58.5c-64.667 0 -112.667 -29.5 -144 -88.5s-47 -149.833 -47 -272.5c0 -113.333 15.167 -198 45.5 -254
s75.833 -84 136.5 -84c54.667 0 98.834 20.333 132.501 61s50.5 94.667 50.5 162v256z" />
    <glyph glyph-name="r" unicode="r" horiz-adv-x="752" 
d="M117 0l-0.000976562 1053h272v-222c24 85.333 59.833 148.333 107.5 189s108.834 61 183.501 61c6.66699 0 19.667 -0.666992 39 -2c6 -0.666992 10.667 -1.33398 14 -2.00098v-284h-5c-26.667 2.66699 -46 4 -58 4c-78 0 -138.833 -24.833 -182.5 -74.5
s-65.5 -118.5 -65.5 -206.5v-516h-305z" />
    <glyph glyph-name="s" unicode="s" horiz-adv-x="1065" 
d="M33 295l256.001 34.999c13.333 -48.667 42.166 -86.167 86.499 -112.5s100.833 -39.5 169.5 -39.5c55.333 0 99.5 10.5 132.5 31.5s49.5 48.833 49.5 83.5c0 50.667 -58.333 86 -175 106c-34.667 6 -61.667 11 -81 15c-142 27.333 -243 66.333 -303 117s-90 120 -90 208
c0 102.667 40.833 185.667 122.5 249s189.5 95 323.5 95c113.333 0 207.833 -23.167 283.5 -69.5s130.167 -114.5 163.5 -204.5l-248 -45c-18 40.667 -44 70.667 -78 90s-78.333 29 -133 29c-51.333 0 -90.5 -9 -117.5 -27s-40.5 -44 -40.5 -78
c0 -49.333 66 -85.666 198 -108.999c45.333 -8 81 -14.667 107 -20c129.333 -26 221.166 -63.5 275.499 -112.5s81.5 -116.5 81.5 -202.5c0 -107.333 -45.167 -193.666 -135.5 -258.999s-211.166 -98 -362.499 -98c-126 0 -232 28.167 -318 84.5
s-141.667 134.166 -167 233.499z" />
    <glyph glyph-name="t" unicode="t" horiz-adv-x="752" 
d="M170 342v506h-170v205h178l17 293l280 18v-311h219v-205h-219v-473c0 -65.333 9.16699 -109.333 27.5 -132s51.5 -34 99.5 -34c18 0 36.5 1.16699 55.5 3.5s38.5 5.83301 58.5 10.5l1 -229c-36 -7.33301 -71 -13 -105 -17s-66 -6 -96 -6
c-122 0 -210.167 29.167 -264.5 87.5s-81.5 152.833 -81.5 283.5z" />
    <glyph glyph-name="u" unicode="u" horiz-adv-x="1163" 
d="M1047 1053l-0.000976562 -1053h-283v168c-34 -65.333 -77.5 -114.5 -130.5 -147.5s-114.5 -49.5 -184.5 -49.5c-117.333 0 -203.833 32.5 -259.5 97.5s-83.5 165.833 -83.5 302.5v682h306v-662c0 -64 12 -112.333 36 -145s59.667 -49 107 -49
c56.667 0 101.834 21.167 135.501 63.5s50.5 99.5 50.5 171.5v621h306z" />
    <glyph glyph-name="v" unicode="v" horiz-adv-x="977" 
d="M360 0l-383 1053h316l227 -713l228 713h243l-377 -1053h-254z" />
    <glyph glyph-name="w" unicode="w" horiz-adv-x="1421" 
d="M309 0l-323 1053h303l180 -645l164 645h233l170 -656l189 656h227l-328 -1053h-233l-174 684l-174 -684h-234z" />
    <glyph glyph-name="x" unicode="x" horiz-adv-x="1014" 
d="M-25 0l367 559l-326 494h351l168 -299l184 299h264l-315 -475l381 -578h-357l-221 381l-233 -381h-263z" />
    <glyph glyph-name="y" unicode="y" horiz-adv-x="1001" 
d="M37 -379l0.000976562 235.001c30 -4.66699 57.5 -8.16699 82.5 -10.5s48.5 -3.5 70.5 -3.5c60.667 0 106.167 13 136.5 39s49.166 67.667 56.499 125l-393 1047h332l223 -703l229 703h240l-418 -1162c-36.667 -100.667 -84.5 -172.834 -143.5 -216.501
s-138.833 -65.5 -239.5 -65.5c-24 0 -50.5 1 -79.5 3s-61.167 5 -96.5 9z" />
    <glyph glyph-name="z" unicode="z" horiz-adv-x="909" 
d="M25 0v190l485 650h-449v213h813v-164l-499 -676h516v-213h-866z" />
    <glyph glyph-name="braceleft" unicode="{" 
d="M883 1477v-208.998c-6 0 -14.333 0.333008 -25 1s-18 1 -22 1c-67.333 0 -112.833 -12.833 -136.5 -38.5s-35.5 -79.834 -35.5 -162.501v-240c0 -98.667 -15 -168.667 -45 -210s-84 -71 -162 -89c78 -18 132 -47.333 162 -88s45 -110.334 45 -209.001v-241
c0 -82 11.667 -135.667 35 -161s69 -38 137 -38c4 0 11.333 0.333008 22 1s19 1 25 1v-209c-9.33301 0 -22.333 -0.333008 -39 -1s-29 -1 -37 -1c-66.667 0 -122.334 4 -167.001 12s-82.667 20.333 -114 37c-38 22.667 -64.833 53.167 -80.5 91.5s-23.5 104.833 -23.5 199.5
v252c0 91.333 -17 156.166 -51 194.499s-91.333 57.5 -172 57.5c-4 0 -10.667 -0.333008 -20 -1s-16.333 -1 -21 -1v209c4.66699 0 11.667 -0.333008 21 -1s16 -1 20 -1c80 0 137.167 19.333 171.5 58s51.5 104 51.5 196v250c0 95.333 7.83301 162.333 23.5 201
s42.5 69.334 80.5 92.001c31.333 16.667 69.333 29 114 37s100.334 12 167.001 12c8 0 20.333 -0.333008 37 -1s29.667 -1 39 -1z" />
    <glyph glyph-name="bar" unicode="|" 
d="M410 1565h206v-2048h-206v2048z" />
    <glyph glyph-name="braceright" unicode="}" 
d="M143 1477h68.001c73.333 0 132.333 -4 177 -12s82 -20.667 112 -38c38 -21.333 64.833 -51.833 80.5 -91.5s23.5 -105.834 23.5 -198.501v-252c0 -91.333 17 -156.166 51 -194.499s91.333 -57.5 172 -57.5c4 0 10.667 0.333008 20 1s16.333 1 21 1v-209h-37
c-83.333 0 -142 -18.667 -176 -56s-51 -102 -51 -194v-252c0 -95.333 -7.83301 -162.333 -23.5 -201s-42.5 -68.667 -80.5 -90c-31.333 -16.667 -69.333 -29 -114 -37s-100.334 -12 -167.001 -12c-8 0 -20.333 0.333008 -37 1s-29.667 1 -39 1v209
c6 0 14.333 -0.333008 25 -1s18 -1 22 -1c67.333 0 112.833 12.833 136.5 38.5s35.5 79.167 35.5 160.5v239c0 100 15 170.5 45 211.5s84 70.167 162 87.5c-78 18 -132 47.667 -162 89s-45 111.333 -45 210v242c0 81.333 -11.833 134.833 -35.5 160.5
s-69.167 38.5 -136.5 38.5c-4 0 -11.333 -0.333008 -22 -1s-19 -1 -25 -1v209z" />
    <glyph glyph-name="asciitilde" unicode="~" horiz-adv-x="1706" 
d="M1530 803l0.00390625 -221c-69.333 -47.333 -134.833 -82.166 -196.5 -104.499s-122.5 -33.5 -182.5 -33.5c-30.667 0 -61.334 2.66699 -92.001 8s-61.334 13 -92.001 23c-16 5.33301 -39.667 13.666 -71 24.999c-146 50 -257 75 -333 75
c-56.667 0 -115.834 -12.5 -177.501 -37.5s-130.834 -64.833 -207.501 -119.5v221c71.333 48 139.333 83.833 204 107.5s125.667 35.5 183 35.5c78 0 175 -19.333 291 -58l4 -1l55 -19c103.333 -36.667 183.333 -55 240 -55s115 12.333 175 37s126.667 63.667 200 117z" />
    <glyph glyph-name="euro" horiz-adv-x="1245" 
d="M1202 408c-27.333 -138.667 -85.3311 -245.835 -173.998 -321.502s-200.667 -113.5 -336 -113.5c-144.667 0 -266.834 49 -366.501 147s-159.834 228.667 -180.501 392h-145l27 141h104c0 6 -0.333008 15.333 -1 28s-1 22.667 -1 30c0 8.66699 1 26.334 3 53.001
c0.666992 10 1 17.333 1 22h-133l27 140h120c32 166.667 95.333 295.667 190 387s213 137 355 137c132 0 242.167 -35.833 330.5 -107.5s144.833 -171.167 169.5 -298.5l-293 -26c-17.333 62.667 -43.833 110.334 -79.5 143.001s-78.834 49 -129.501 49
c-60 0 -109.167 -24.167 -147.5 -72.5s-64.166 -118.833 -77.499 -211.5h512l-51 -140h-471c0 -12 -0.333008 -26.333 -1 -43s-1 -27.334 -1 -32.001c0 -9.33301 0.166992 -18.833 0.5 -28.5s0.833008 -19.5 1.5 -29.5h428l-52 -141h-368c12 -99.333 38 -174 78 -224
s93 -75 159 -75c52 0 95.5 18.833 130.5 56.5s61.167 93.834 78.5 168.501z" />
    <glyph glyph-name="euro" unicode="&#x20ac;" horiz-adv-x="1245" 
d="M1202 408c-27.333 -138.667 -85.3311 -245.835 -173.998 -321.502s-200.667 -113.5 -336 -113.5c-144.667 0 -266.834 49 -366.501 147s-159.834 228.667 -180.501 392h-145l27 141h104c0 6 -0.333008 15.333 -1 28s-1 22.667 -1 30c0 8.66699 1 26.334 3 53.001
c0.666992 10 1 17.333 1 22h-133l27 140h120c32 166.667 95.333 295.667 190 387s213 137 355 137c132 0 242.167 -35.833 330.5 -107.5s144.833 -171.167 169.5 -298.5l-293 -26c-17.333 62.667 -43.833 110.334 -79.5 143.001s-78.834 49 -129.501 49
c-60 0 -109.167 -24.167 -147.5 -72.5s-64.166 -118.833 -77.499 -211.5h512l-51 -140h-471c0 -12 -0.333008 -26.333 -1 -43s-1 -27.334 -1 -32.001c0 -9.33301 0.166992 -18.833 0.5 -28.5s0.833008 -19.5 1.5 -29.5h428l-52 -141h-368c12 -99.333 38 -174 78 -224
s93 -75 159 -75c52 0 95.5 18.833 130.5 56.5s61.167 93.834 78.5 168.501z" />
    <glyph glyph-name="nonbreakingspace" unicode="&#xa0;" horiz-adv-x="1245" 
 />
    <glyph glyph-name="exclamdown" unicode="&#xa1;" horiz-adv-x="684" 
d="M428 1022l109 -1006h-396l109 1006h178zM502 1440v-312h-326v312h326z" />
    <glyph glyph-name="cent" unicode="&#xa2;" horiz-adv-x="1245" 
d="M829 848c-8 59.333 -27.001 105.499 -57.001 138.499s-67.667 49.5 -113 49.5c-55.333 0 -100.166 -27 -134.499 -81s-51.5 -126.667 -51.5 -218c0 -96.667 16.5 -171.667 49.5 -225s79.5 -80 139.5 -80c44.667 0 82.667 15.667 114 47s52.666 75 63.999 131l254 -26
c-19.333 -103.333 -60.5 -185.833 -123.5 -247.5s-143.5 -98.834 -241.5 -111.501v-280h-160v284c-121.333 20.667 -217.5 75.5 -288.5 164.5s-106.5 199.5 -106.5 331.5c0 136.667 34.833 249.5 104.5 338.5s166.5 144.833 290.5 167.5v235h160v-231
c100.667 -13.333 182.834 -51.666 246.501 -114.999s103.167 -146.666 118.5 -249.999z" />
    <glyph glyph-name="sterling" unicode="&#xa3;" horiz-adv-x="1245" 
d="M45 0l0.000976562 243.999h23c86.667 0 153 21.5 199 64.5s69 105.5 69 187.5c0 23.333 -1.33301 48 -4 74s-7 53.667 -13 83h-196v199h164c-6 34 -10.333 63.5 -13 88.5s-4 47.5 -4 67.5c0 130.667 43.5 237 130.5 319s199.833 123 338.5 123
c91.333 0 171.166 -21.167 239.499 -63.5s120.5 -103.166 156.5 -182.499l-236 -100c-16 39.333 -37.667 69 -65 89s-59.666 30 -96.999 30c-48.667 0 -85.667 -15.833 -111 -47.5s-38 -77.5 -38 -137.5c0 -20.667 1.66699 -46.667 5 -78s8.33301 -67.333 15 -108h252v-199
h-229c0 -2 0.333008 -5.66699 1 -11c2 -27.333 3 -47.333 3 -60c0 -77.333 -15 -145 -45 -203s-74.333 -105 -133 -141h278c84.667 0 148.667 13.333 192 40s73.666 70.667 90.999 132l242 -68c-38 -118 -95.5 -204.5 -172.5 -259.5s-179.5 -82.5 -307.5 -82.5h-735z" />
    <glyph glyph-name="currency" unicode="&#xa4;" horiz-adv-x="1245" 
d="M1202 408c-27.333 -138.667 -85.3311 -245.835 -173.998 -321.502s-200.667 -113.5 -336 -113.5c-144.667 0 -266.834 49 -366.501 147s-159.834 228.667 -180.501 392h-145l27 141h104c0 6 -0.333008 15.333 -1 28s-1 22.667 -1 30c0 8.66699 1 26.334 3 53.001
c0.666992 10 1 17.333 1 22h-133l27 140h120c32 166.667 95.333 295.667 190 387s213 137 355 137c132 0 242.167 -35.833 330.5 -107.5s144.833 -171.167 169.5 -298.5l-293 -26c-17.333 62.667 -43.833 110.334 -79.5 143.001s-78.834 49 -129.501 49
c-60 0 -109.167 -24.167 -147.5 -72.5s-64.166 -118.833 -77.499 -211.5h512l-51 -140h-471c0 -12 -0.333008 -26.333 -1 -43s-1 -27.334 -1 -32.001c0 -9.33301 0.166992 -18.833 0.5 -28.5s0.833008 -19.5 1.5 -29.5h428l-52 -141h-368c12 -99.333 38 -174 78 -224
s93 -75 159 -75c52 0 95.5 18.833 130.5 56.5s61.167 93.834 78.5 168.501z" />
    <glyph glyph-name="yen" unicode="&#xa5;" horiz-adv-x="1309" 
d="M502 0v498h-463v170h424l-82 143h-342v170h244l-254 440h358l303 -551l297 551h295l-246 -440h236v-170h-332l-82 -143h414v-170h-443v-498h-327z" />
    <glyph glyph-name="brokenbar" unicode="&#xa6;" 
d="M410 408h206v-758h-206v758zM410 1432h206v-758h-206v758z" />
    <glyph glyph-name="section" unicode="&#xa7;" 
d="M711 485c0 20.667 -10.002 46.833 -30.002 78.5s-48.333 66.5 -85 104.5l-14 13c-97.333 100 -163.666 150 -198.999 150c-22.667 0 -42 -7.83301 -58 -23.5s-24 -34.834 -24 -57.501c0 -20 8 -43.167 24 -69.5s46.333 -64.166 91 -113.499
c55.333 -61.333 98.833 -103.5 130.5 -126.5s60.5 -34.5 86.5 -34.5c22.667 0 41.334 7.33301 56.001 22s22 33.667 22 57zM841.998 1272l-156.002 -115.002c-34 40.667 -63.833 69.667 -89.5 87s-51.167 26 -76.5 26c-20.667 0 -38.834 -7.16699 -54.501 -21.5
s-23.5 -30.5 -23.5 -48.5c0 -46.667 34.333 -105.334 103 -176.001l8 -8l188 -197c74 -74.667 123.333 -134.667 148 -180s37 -92.333 37 -141c0 -66.667 -19.167 -122 -57.5 -166s-91.5 -71.333 -159.5 -82c32 -38.667 55.333 -76 70 -112s22 -74.333 22 -115
c0 -88.667 -27.667 -159 -83 -211s-130 -78 -224 -78c-66.667 0 -128.5 16.667 -185.5 50s-109.833 83.333 -158.5 150l163 121c34.667 -46 65.834 -79.333 93.501 -100s55.167 -31 82.5 -31c28 0 51.5 9.16699 70.5 27.5s28.5 40.5 28.5 66.5
c0 22.667 -8.66699 49.334 -26 80.001s-41.666 62.334 -72.999 95.001l-243 253c-54 56.667 -92.5 107 -115.5 151s-34.5 88.667 -34.5 134c0 65.333 19.333 120.5 58 165.5s90.334 72.5 155.001 82.5c-28.667 40.667 -49.834 78.334 -63.501 113.001
s-20.5 68.667 -20.5 102c0 77.333 27.5 139.333 82.5 186s128.5 70 220.5 70c61.333 0 118.333 -15 171 -45s100.334 -74.333 143.001 -133z" />
    <glyph glyph-name="dieresis" unicode="&#xa8;" 
d="M578 1247v238h215v-238h-215zM231 1247v238h215v-238h-215z" />
    <glyph glyph-name="copyright" unicode="&#xa9;" horiz-adv-x="1706" 
d="M1212 897l-188.001 -0.00195312c-5.33301 46.667 -23 82.834 -53 108.501s-69.667 38.5 -119 38.5c-60.667 0 -108.334 -27.167 -143.001 -81.5s-52 -130.166 -52 -227.499c0 -98 17.333 -172.667 52 -224s85 -77 151 -77c48.667 0 87.667 14 117 42s47 67.667 53 119
l193 1c-5.33301 -92.667 -41.666 -167 -108.999 -223s-154 -84 -260 -84c-124 0 -221.833 39.333 -293.5 118s-107.5 186 -107.5 322c0 137.333 36.5 246.833 109.5 328.5s170.833 122.5 293.5 122.5c101.333 0 184.833 -26 250.5 -78s100.834 -120.333 105.501 -205z
M853.999 1356c-85.333 0 -165.168 -15.3311 -239.501 -45.998s-140.5 -75.334 -198.5 -134.001c-59.333 -60 -104.666 -127.833 -135.999 -203.5s-47 -154.834 -47 -237.501c0 -83.333 15.667 -162.333 47 -237s76.666 -141.667 135.999 -201
c58.667 -58.667 125.667 -103.667 201 -135s154.333 -47 237 -47s161.834 15.667 237.501 47s143.834 77 204.501 137c58.667 57.333 103.167 123 133.5 197s45.5 153.667 45.5 239c0 84 -15.5 163.5 -46.5 238.5s-75.833 141.833 -134.5 200.5
c-59.333 59.333 -126.333 104.5 -201 135.5s-154.334 46.5 -239.001 46.5zM851.997 1479c101.333 0 197.167 -18.668 287.5 -56.001s171.166 -91.666 242.499 -162.999c70 -70 123.333 -150.167 160 -240.5s55 -185.833 55 -286.5c0 -101.333 -18.167 -196 -54.5 -284
s-89.833 -166.667 -160.5 -236c-74 -72 -156.667 -127.167 -248 -165.5s-185.333 -57.5 -282 -57.5c-98 0 -191.5 18.833 -280.5 56.5s-169.5 92.5 -241.5 164.5c-71.333 70.667 -125.666 150.834 -162.999 240.501s-56 183.5 -56 281.5c0 99.333 18.667 194.166 56 284.499
s91.666 171.833 162.999 244.5c70 70.667 149.333 124.5 238 161.5s183.334 55.5 284.001 55.5z" />
    <glyph glyph-name="ordfeminine" unicode="&#xaa;" horiz-adv-x="879" 
d="M594 686c-4 16.667 -7.16602 34.501 -9.49902 53.501s-4.16602 40.5 -5.49902 64.5c-26.667 -44 -62.5 -77.667 -107.5 -101s-96.5 -35 -154.5 -35c-84.667 0 -151.834 20.167 -201.501 60.5s-74.5 95.166 -74.5 164.499c0 87.333 44.667 153.333 134 198
s222.666 68 399.999 70v31c0 37.333 -11 65.5 -33 84.5s-55.333 28.5 -100 28.5c-48 0 -85.667 -8.66699 -113 -26s-44.333 -43 -51 -77l-215 23c18.667 72 61 126.5 127 163.5s154.333 55.5 265 55.5c122.667 0 211 -22.5 265 -67.5s81 -118.833 81 -221.5v-328
c0 -31.333 1.83301 -58.5 5.5 -81.5s9.16699 -42.833 16.5 -59.5h-229zM575.001 1047c-94 -1.33301 -165.833 -14.167 -215.5 -38.5s-74.5 -58.833 -74.5 -103.5c0 -30 10.5 -53.5 31.5 -70.5s49.833 -25.5 86.5 -25.5c50 0 91.167 16.167 123.5 48.5s48.5 73.5 48.5 123.5
v66z" />
    <glyph glyph-name="guillemotleft" unicode="&#xab;" horiz-adv-x="850" 
d="M672 526l131 -352h-152l-213 352l213 353h152zM293 526l131 -352h-152l-213 352l213 353h152z" />
    <glyph glyph-name="logicalnot" unicode="&#xac;" horiz-adv-x="1706" 
d="M254 864h1198v-502h-199v306h-999v196z" />
    <glyph glyph-name="sfthyphen" unicode="&#xad;" horiz-adv-x="711" 
d="M98 408v247h514v-247h-514z" />
    <glyph glyph-name="registered" unicode="&#xae;" horiz-adv-x="1706" 
d="M745 1034l-0.000976562 -239h99c58.667 0 101.667 9.33301 129 28s41 48 41 88c0 42 -14.667 73 -44 93s-74.666 30 -135.999 30h-89zM544.999 1161l323 0.00195312c117.333 0 205.5 -19.833 264.5 -59.5s88.5 -98.834 88.5 -177.501
c0 -54.667 -16 -101.334 -48 -140.001s-76.333 -65 -133 -79l185 -369h-224l-157 338h-99v-338h-200v825zM853.999 1356c-84.667 0 -163.331 -14.834 -235.998 -44.501s-138 -73.5 -196 -131.5c-60.667 -60.667 -107.334 -129.5 -140.001 -206.5s-49 -156.5 -49 -238.5
c0 -82.667 15.333 -161.167 46 -235.5s75 -140.5 133 -198.5c59.333 -60.667 127 -107.167 203 -139.5s155 -48.5 237 -48.5c80 0 157.833 15.667 233.5 47s144.5 76.333 206.5 135c58 56 103 121.333 135 196s48 152 48 232c0 88.667 -14.833 170.334 -44.5 245.001
s-73.834 141.667 -132.501 201c-60 62 -127.5 108.667 -202.5 140s-155.5 47 -241.5 47zM852.002 1479c102.667 0 199.498 -19.1689 290.498 -57.502s172.167 -93.833 243.5 -166.5c68.667 -69.333 121 -148.666 157 -237.999s54 -184 54 -284
c0 -101.333 -18.667 -197.166 -56 -287.499s-91.666 -169.833 -162.999 -238.5c-71.333 -70 -152.5 -123.667 -243.5 -161s-185.167 -56 -282.5 -56c-99.333 0 -194.333 19.333 -285 58s-171.667 94.334 -243 167.001c-69.333 70 -122.166 149.5 -158.499 238.5
s-54.5 182.167 -54.5 279.5c0 68 9 134.167 27 198.5s45 127.166 81 188.499c67.333 113.333 156.333 201.5 267 264.5s232.667 94.5 366 94.5z" />
    <glyph glyph-name="macron" unicode="&#xaf;" 
d="M223 1290v152h576v-152h-576z" />
    <glyph glyph-name="degree" unicode="&#xb0;" horiz-adv-x="674" 
d="M338 1335c-48.667 0 -90.167 -17 -124.5 -51s-51.5 -75 -51.5 -123c0 -49.333 17 -91 51 -125s75.667 -51 125 -51c48 0 89 17.333 123 52s51 76 51 124s-17 89 -51 123s-75 51 -123 51zM338 1464c84 0 155.5 -29.835 214.5 -89.502s88.5 -131.5 88.5 -215.5
c0 -83.333 -29.667 -154.666 -89 -213.999s-131.333 -89 -216 -89c-84 0 -155.167 29.333 -213.5 88s-87.5 130.334 -87.5 215.001s29.5 156.667 88.5 216s130.5 89 214.5 89z" />
    <glyph glyph-name="plusminus" unicode="&#xb1;" horiz-adv-x="1706" 
d="M254 197h1198v-199h-1198v199zM752 1223h202v-326h498v-199h-498v-325h-202v325h-498v199h498v326z" />
    <glyph glyph-name="twosuperior" unicode="&#xb2;" horiz-adv-x="821" 
d="M57 569v156.001c198.667 129.333 328.667 223.166 390 281.499s92 110.5 92 156.5c0 36 -13 65.5 -39 88.5s-59 34.5 -99 34.5c-48.667 0 -86.5 -14.167 -113.5 -42.5s-41.5 -69.166 -43.5 -122.499l-187 40c20 89.333 61.167 158.166 123.5 206.499
s141.5 72.5 237.5 72.5c98.667 0 179 -25.5 241 -76.5s93 -117.167 93 -198.5c0 -64.667 -31 -129.5 -93 -194.5s-168.333 -142.833 -319 -233.5h418l-6 -168h-695z" />
    <glyph glyph-name="threesuperior" unicode="&#xb3;" horiz-adv-x="821" 
d="M18 805l191.002 28.999c12 -44 33.667 -77.333 65 -100s71.666 -34 120.999 -34c46.667 0 84.667 11.167 114 33.5s44 50.833 44 85.5c0 35.333 -15.167 64.333 -45.5 87s-69.833 34 -118.5 34h-123v141h109c48 0 85.5 9 112.5 27s40.5 43.333 40.5 76
c0 32 -12.167 58 -36.5 78s-56.5 30 -96.5 30c-42 0 -76.333 -9.5 -103 -28.5s-44 -46.167 -52 -81.5l-185 28c21.333 74 62 130.833 122 170.5s134.667 59.5 224 59.5c99.333 0 179.5 -21.667 240.5 -65s91.5 -99.666 91.5 -168.999c0 -45.333 -14.333 -85.333 -43 -120
s-67 -58 -115 -70c59.333 -12 106 -36.667 140 -74s51 -81.666 51 -132.999c0 -75.333 -33.167 -136.833 -99.5 -184.5s-152.5 -71.5 -258.5 -71.5c-104 0 -188.833 21.167 -254.5 63.5s-110.834 105.166 -135.501 188.499z" />
    <glyph glyph-name="acute" unicode="&#xb4;" 
d="M352 1192l199 362h246l-310 -362h-135z" />
    <glyph glyph-name="mu" unicode="&#xb5;" horiz-adv-x="1249" 
d="M205 1092h289.001l-76 -435c-10 -53.333 -17.667 -103.833 -23 -151.5s-8 -86.5 -8 -116.5c0 -62 14 -108.167 42 -138.5s70.667 -45.5 128 -45.5c66.667 0 118.5 27.333 155.5 82s67.833 151.667 92.5 291l90 514h289l-193 -1092h-268l18 117
c-28 -52 -59.167 -90 -93.5 -114s-74.833 -36 -121.5 -36c-44.667 0 -84.334 9.83301 -119.001 29.5s-66 50.167 -94 91.5l-90 -526h-286z" />
    <glyph glyph-name="paragraph" unicode="&#xb6;" 
d="M983 1479v-111h-113v-1368h-151v1368h-158v-1368h-153v784c-111.333 4 -200.333 37.667 -267 101s-100 145 -100 245c0 105.333 35.667 189.833 107 253.5s166 95.5 284 95.5h551z" />
    <glyph glyph-name="periodcentered" unicode="&#xb7;" horiz-adv-x="623" 
d="M125 713c0 51.333 18.1689 95.167 54.502 131.5s80.166 54.5 131.499 54.5c52 0 96.5 -18.167 133.5 -54.5s55.5 -80.166 55.5 -131.499c0 -52 -18.5 -96.5 -55.5 -133.5s-81.5 -55.5 -133.5 -55.5c-50.667 0 -94.334 18.667 -131.001 56s-55 81.666 -55 132.999z" />
    <glyph glyph-name="cedilla" unicode="&#xb8;" 
d="M283 -432v119.001c52.667 -14 101.5 -24.333 146.5 -31s86.833 -10 125.5 -10c28.667 0 50.5 6 65.5 18s22.5 29.667 22.5 53c0 28 -10.333 48.333 -31 61s-54 19 -100 19c-12.667 0 -22.5 -0.166992 -29.5 -0.5s-13.5 -0.5 -19.5 -0.5v204h98v-92h21
c73.333 0 129.5 -16.333 168.5 -49s58.5 -79.334 58.5 -140.001c0 -62 -21.5 -109.833 -64.5 -143.5s-104.833 -50.5 -185.5 -50.5c-39.333 0 -82.333 3.66699 -129 11s-95.667 18 -147 32z" />
    <glyph glyph-name="onesuperior" unicode="&#xb9;" horiz-adv-x="823" 
d="M106 569l0.000976562 148.001h254v510c-39.333 -26.667 -78 -49.167 -116 -67.5s-75 -32.833 -111 -43.5v156c60.667 16 114.167 38.167 160.5 66.5s85.166 62.166 116.499 101.499h153v-723h240v-148h-697z" />
    <glyph glyph-name="ordmasculine" unicode="&#xba;" horiz-adv-x="883" 
d="M440 815c50 0 88.167 20.501 114.5 61.501s39.5 100.5 39.5 178.5s-13.167 137.667 -39.5 179s-64.5 62 -114.5 62c-49.333 0 -86.833 -20.333 -112.5 -61s-38.5 -100.667 -38.5 -180c0 -78.667 12.667 -138.334 38 -179.001s63 -61 113 -61zM440 666.001
c-118 0 -213.667 35.667 -287 107s-110 165.333 -110 282s36.5 210.667 109.5 282s168.833 107 287.5 107c120.667 0 217.5 -35.5 290.5 -106.5s109.5 -165.167 109.5 -282.5s-36.5 -211.5 -109.5 -282.5s-169.833 -106.5 -290.5 -106.5z" />
    <glyph glyph-name="guillemotright" unicode="&#xbb;" horiz-adv-x="850" 
d="M561 526l-133 353h154l213 -353l-213 -352h-154zM182 526l-131 353h152l213 -353l-213 -352h-152z" />
    <glyph glyph-name="onequarter" unicode="&#xbc;" horiz-adv-x="1911" 
d="M1567 317v328l-236 -328h236zM1563 0v182h-389v129l364 500h215v-494h133v-135h-133v-182h-190zM1286 1434h180l-841 -1446h-183zM102 627v137.002h240v477c-36 -24.667 -72.167 -45.834 -108.5 -63.501s-71.833 -31.167 -106.5 -40.5v145
c57.333 15.333 108.333 36.166 153 62.499s81.667 57.5 111 93.5h146v-674h229v-137h-664z" />
    <glyph glyph-name="onehalf" unicode="&#xbd;" horiz-adv-x="1911" 
d="M1182 0l0.000976562 145c188 120 311.333 207.333 370 262s88 103.334 88 146.001c0 34 -12.333 62 -37 84s-56 33 -94 33c-46 0 -81.833 -13.5 -107.5 -40.5s-39.5 -65.167 -41.5 -114.5l-178 36c18 84 56.667 148.333 116 193s135.333 67 228 67
c94 0 170.333 -23.667 229 -71s88 -108.333 88 -183c0 -60.667 -29.333 -121.334 -88 -182.001s-160.334 -133.667 -305.001 -219h399l-6 -156h-661zM1286 1434h180l-841 -1446h-183zM102.001 627v137.002h240v477c-36 -24.667 -72.167 -45.834 -108.5 -63.501
s-71.833 -31.167 -106.5 -40.5v145c57.333 15.333 108.333 36.166 153 62.499s81.667 57.5 111 93.5h146v-674h229v-137h-664z" />
    <glyph glyph-name="threequarters" unicode="&#xbe;" horiz-adv-x="1911" 
d="M1567 317v328l-236 -328h236zM1563 0v182h-389v129l364 500h215v-494h133v-135h-133v-182h-190zM1286 1434h180l-841 -1446h-183zM18 846l180.999 25.9971c11.333 -40 32.166 -70.667 62.499 -92s68.833 -32 115.5 -32c44 0 80.167 10.5 108.5 31.5
s42.5 47.833 42.5 80.5s-14.5 59.667 -43.5 81s-66.833 32 -113.5 32h-117v131h104c46.667 0 82.667 8.5 108 25.5s38 40.5 38 70.5s-11.833 54.667 -35.5 74s-54.167 29 -91.5 29c-39.333 0 -71.666 -9.16699 -96.999 -27.5s-42.333 -44.166 -51 -77.499l-176 27
c20.667 68.667 59.667 121.667 117 159s128.333 56 213 56c94 0 170.333 -20.333 229 -61s88 -92.667 88 -156c0 -43.333 -13.667 -81.166 -41 -113.499s-64 -54.166 -110 -65.499c56.667 -12 101.167 -35.167 133.5 -69.5s48.5 -75.833 48.5 -124.5
c0 -70 -31.667 -127.5 -95 -172.5s-145.666 -67.5 -246.999 -67.5c-99.333 0 -180 19.833 -242 59.5s-105 98.5 -129 176.5z" />
    <glyph glyph-name="questiondown" unicode="&#xbf;" horiz-adv-x="1151" 
d="M733 1032v-106c0 -47.333 -6.66699 -89.166 -20 -125.499s-34 -67.5 -62 -93.5c-13.333 -13.333 -38.5 -34 -75.5 -62l-86.5 -67c-25.333 -22.667 -44.833 -49.334 -58.5 -80.001s-20.5 -63 -20.5 -97c0 -54 17 -97.5 51 -130.5s79 -49.5 135 -49.5
c64.667 0 115.5 23 152.5 69s57.167 111 60.5 195l289 -39c-20.667 -146 -77.167 -258.833 -169.5 -338.5s-212.833 -119.5 -361.5 -119.5c-68.667 0 -132.667 9.5 -192 28.5s-109.333 46.167 -150 81.5c-48.667 43.333 -86 91.5 -112 144.5s-39 108.167 -39 165.5
c0 40.667 5.33301 79 16 115s27 71.333 49 106c31.333 48 103.666 107.333 216.999 178l29 18c26.667 16.667 47.334 37.5 62.001 62.5s22 52.167 22 81.5v63h264zM750 1440v-305h-320v305h320z" />
    <glyph glyph-name="Agrave" unicode="&#xc0;" horiz-adv-x="1235" 
d="M-18 0l450 1421h361l452 -1421h-340l-102 340h-445l-100 -340h-276zM424 580h315l-159 526zM643 1563l-308 362h244l199 -362h-135z" />
    <glyph glyph-name="Aacute" unicode="&#xc1;" horiz-adv-x="1235" 
d="M-18 0l450 1421h361l452 -1421h-340l-102 340h-445l-100 -340h-276zM424 580h315l-159 526zM458 1563l199 362h246l-310 -362h-135z" />
    <glyph glyph-name="Acircumflex" unicode="&#xc2;" horiz-adv-x="1235" 
d="M-18 0l450 1421h361l452 -1421h-340l-102 340h-445l-100 -340h-276zM424 580h315l-159 526zM311 1563l194 362h226l194 -362h-135l-172 217l-172 -217h-135z" />
    <glyph glyph-name="Atilde" unicode="&#xc3;" horiz-adv-x="1235" 
d="M-18 0l450 1421h361l452 -1421h-340l-102 340h-445l-100 -340h-276zM424 580h315l-159 526zM933 1866c-18.667 -78.667 -45.001 -136.499 -79.001 -173.499s-78 -55.5 -132 -55.5c-14.667 0 -27.667 0.833008 -39 2.5s-22 4.16699 -32 7.5l-86 27
c-12 3.33301 -23.5 6.16602 -34.5 8.49902s-20.833 3.5 -29.5 3.5c-22 0 -40.5 -6 -55.5 -18s-27.167 -30.667 -36.5 -56h-106c17.333 76 43 132.167 77 168.5s77 54.5 129 54.5c13.333 0 26.833 -1 40.5 -3s26.834 -5 39.501 -9l89 -27c10 -2.66699 20 -5 30 -7
s18.333 -3 25 -3c24 0 43.667 6.33301 59 19s27 33 35 61h106z" />
    <glyph glyph-name="Adieresis" unicode="&#xc4;" horiz-adv-x="1235" 
d="M-18 0l450 1421h361l452 -1421h-340l-102 340h-445l-100 -340h-276zM424 580h315l-159 526zM684 1618v238h215v-238h-215zM337 1618v238h215v-238h-215z" />
    <glyph glyph-name="Aring" unicode="&#xc5;" horiz-adv-x="1235" 
d="M616 1872c-34.667 0 -64 -12.167 -88 -36.5s-36 -53.833 -36 -88.5s12 -64.167 36 -88.5s53.333 -36.5 88 -36.5c35.333 0 65 12.167 89 36.5s36 53.833 36 88.5s-12 64.167 -36 88.5s-53.667 36.5 -89 36.5zM580 1106l-156 -526h315zM616 2007
c73.333 0 135.167 -24.833 185.5 -74.5s75.5 -110.834 75.5 -183.501c0 -74 -25 -136.167 -75 -186.5s-112 -75.5 -186 -75.5c-73.333 0 -135 25.167 -185 75.5s-75 112.5 -75 186.5c0 72.667 25.167 133.834 75.5 183.501s111.833 74.5 184.5 74.5zM432.001 1421h361
l452 -1421h-340l-102 340h-445l-100 -340h-276z" />
    <glyph glyph-name="AE" unicode="&#xc6;" horiz-adv-x="1839" 
d="M776 584v592l-303 -592h303zM1780 260v-260h-1004v350h-403l-183 -350h-286l723 1421h1142v-256h-686v-309h555v-244h-555v-352h697z" />
    <glyph glyph-name="Ccedilla" unicode="&#xc7;" horiz-adv-x="1305" 
d="M942 895c-6.66699 94 -32 167.665 -76 220.998s-100.667 80 -170 80c-92.667 0 -163.167 -41.333 -211.5 -124s-72.5 -203 -72.5 -361c0 -158.667 23.833 -278 71.5 -358s118.5 -120 212.5 -120c68 0 123.5 24 166.5 72s72.167 118.333 87.5 211l303 -31
c-24 -162.667 -84.833 -288.667 -182.5 -378s-223.834 -134 -378.501 -134c-191.333 0 -343.166 66.333 -455.499 199s-168.5 312.334 -168.5 539.001c0 225.333 56.667 404.833 170 538.5s265.333 200.5 456 200.5c158 0 285.833 -46.167 383.5 -138.5
s156.167 -222.166 175.5 -389.499zM443 -432.002v119.001c52.667 -14 101.5 -24.333 146.5 -31s86.833 -10 125.5 -10c28.667 0 50.5 6 65.5 18s22.5 29.667 22.5 53c0 28 -10.333 48.333 -31 61s-54 19 -100 19c-12.667 0 -22.5 -0.166992 -29.5 -0.5
s-13.5 -0.5 -19.5 -0.5v204h98v-92h21c73.333 0 129.5 -16.333 168.5 -49s58.5 -79.334 58.5 -140.001c0 -62 -21.5 -109.833 -64.5 -143.5s-104.833 -50.5 -185.5 -50.5c-39.333 0 -82.333 3.66699 -129 11s-95.667 18 -147 32z" />
    <glyph glyph-name="Egrave" unicode="&#xc8;" horiz-adv-x="1210" 
d="M135 0v1421h1006v-256h-686v-309h553v-240h-553v-356h696v-260h-1016zM687 1563l-308 362h244l199 -362h-135z" />
    <glyph glyph-name="Eacute" unicode="&#xc9;" horiz-adv-x="1210" 
d="M135 0v1421h1006v-256h-686v-309h553v-240h-553v-356h696v-260h-1016zM502 1563l199 362h246l-310 -362h-135z" />
    <glyph glyph-name="Ecircumflex" unicode="&#xca;" horiz-adv-x="1210" 
d="M135 0v1421h1006v-256h-686v-309h553v-240h-553v-356h696v-260h-1016zM355 1563l194 362h226l194 -362h-135l-172 217l-172 -217h-135z" />
    <glyph glyph-name="Edieresis" unicode="&#xcb;" horiz-adv-x="1210" 
d="M135 0v1421h1006v-256h-686v-309h553v-240h-553v-356h696v-260h-1016zM728 1618v238h215v-238h-215zM381 1618v238h215v-238h-215z" />
    <glyph glyph-name="Igrave" unicode="&#xcc;" horiz-adv-x="614" 
d="M137 0v1421h338v-1421h-338zM332 1563l-308 362h244l199 -362h-135z" />
    <glyph glyph-name="Iacute" unicode="&#xcd;" horiz-adv-x="614" 
d="M137 0v1421h338v-1421h-338zM147 1563l199 362h246l-310 -362h-135z" />
    <glyph glyph-name="Icircumflex" unicode="&#xce;" horiz-adv-x="614" 
d="M137 0v1421h338v-1421h-338zM0 1563l194 362h226l194 -362h-135l-172 217l-172 -217h-135z" />
    <glyph glyph-name="Idieresis" unicode="&#xcf;" horiz-adv-x="614" 
d="M137 0v1421h338v-1421h-338zM373 1618v238h215v-238h-215zM26 1618v238h215v-238h-215z" />
    <glyph glyph-name="Eth" unicode="&#xd0;" horiz-adv-x="1411" 
d="M143 0v649.001h-135v176h135v596h512c84 0 159.333 -8.16699 226 -24.5s124 -40.833 172 -73.5c93.333 -63.333 165.833 -148.5 217.5 -255.5s77.5 -225.833 77.5 -356.5c0 -218.667 -63.833 -391.834 -191.5 -519.501s-301.5 -191.5 -521.5 -191.5h-492zM475 260.001
h163.999c110 0 196.5 40.333 259.5 121s94.5 192 94.5 334s-30.667 252.5 -92 331.5s-146.666 118.5 -255.999 118.5h-170v-340h254v-176h-254v-389z" />
    <glyph glyph-name="Ntilde" unicode="&#xd1;" horiz-adv-x="1415" 
d="M135 0v1421h340l541 -915l-10 915h274v-1421h-283l-600 1018l11 -1018h-273zM1036 1866c-18.667 -78.667 -45.001 -136.499 -79.001 -173.499s-78 -55.5 -132 -55.5c-14.667 0 -27.667 0.833008 -39 2.5s-22 4.16699 -32 7.5l-86 27
c-12 3.33301 -23.5 6.16602 -34.5 8.49902s-20.833 3.5 -29.5 3.5c-22 0 -40.5 -6 -55.5 -18s-27.167 -30.667 -36.5 -56h-106c17.333 76 43 132.167 77 168.5s77 54.5 129 54.5c13.333 0 26.833 -1 40.5 -3s26.834 -5 39.501 -9l89 -27c10 -2.66699 20 -5 30 -7
s18.333 -3 25 -3c24 0 43.667 6.33301 59 19s27 33 35 61h106z" />
    <glyph glyph-name="Ograve" unicode="&#xd2;" horiz-adv-x="1409" 
d="M705 233c90 0 159.833 41.668 209.5 125.001s74.5 201.666 74.5 354.999s-24.667 271.5 -74 354.5s-119.333 124.5 -210 124.5s-160.5 -41.333 -209.5 -124s-73.5 -201 -73.5 -355s24.5 -272.5 73.5 -355.5s118.833 -124.5 209.5 -124.5zM705 -26.999
c-191.333 0 -345.333 67.5 -462 202.5s-175 314.167 -175 537.5c0 222.667 58.167 401.167 174.5 535.5s270.5 201.5 462.5 201.5c191.333 0 345.5 -67.333 462.5 -202s175.5 -313 175.5 -535c0 -222.667 -58.5 -401.667 -175.5 -537s-271.167 -203 -462.5 -203zM730 1563
l-308 362h244l199 -362h-135z" />
    <glyph glyph-name="Oacute" unicode="&#xd3;" horiz-adv-x="1409" 
d="M705 233c90 0 159.833 41.668 209.5 125.001s74.5 201.666 74.5 354.999s-24.667 271.5 -74 354.5s-119.333 124.5 -210 124.5s-160.5 -41.333 -209.5 -124s-73.5 -201 -73.5 -355s24.5 -272.5 73.5 -355.5s118.833 -124.5 209.5 -124.5zM705 -26.999
c-191.333 0 -345.333 67.5 -462 202.5s-175 314.167 -175 537.5c0 222.667 58.167 401.167 174.5 535.5s270.5 201.5 462.5 201.5c191.333 0 345.5 -67.333 462.5 -202s175.5 -313 175.5 -535c0 -222.667 -58.5 -401.667 -175.5 -537s-271.167 -203 -462.5 -203zM545 1563
l199 362h246l-310 -362h-135z" />
    <glyph glyph-name="Ocircumflex" unicode="&#xd4;" horiz-adv-x="1409" 
d="M705 233c90 0 159.833 41.668 209.5 125.001s74.5 201.666 74.5 354.999s-24.667 271.5 -74 354.5s-119.333 124.5 -210 124.5s-160.5 -41.333 -209.5 -124s-73.5 -201 -73.5 -355s24.5 -272.5 73.5 -355.5s118.833 -124.5 209.5 -124.5zM705 -26.999
c-191.333 0 -345.333 67.5 -462 202.5s-175 314.167 -175 537.5c0 222.667 58.167 401.167 174.5 535.5s270.5 201.5 462.5 201.5c191.333 0 345.5 -67.333 462.5 -202s175.5 -313 175.5 -535c0 -222.667 -58.5 -401.667 -175.5 -537s-271.167 -203 -462.5 -203zM398 1563
l194 362h226l194 -362h-135l-172 217l-172 -217h-135z" />
    <glyph glyph-name="Otilde" unicode="&#xd5;" horiz-adv-x="1409" 
d="M705 233c90 0 159.833 41.668 209.5 125.001s74.5 201.666 74.5 354.999s-24.667 271.5 -74 354.5s-119.333 124.5 -210 124.5s-160.5 -41.333 -209.5 -124s-73.5 -201 -73.5 -355s24.5 -272.5 73.5 -355.5s118.833 -124.5 209.5 -124.5zM705 -26.999
c-191.333 0 -345.333 67.5 -462 202.5s-175 314.167 -175 537.5c0 222.667 58.167 401.167 174.5 535.5s270.5 201.5 462.5 201.5c191.333 0 345.5 -67.333 462.5 -202s175.5 -313 175.5 -535c0 -222.667 -58.5 -401.667 -175.5 -537s-271.167 -203 -462.5 -203zM1020 1866
c-18.667 -78.667 -45.001 -136.499 -79.001 -173.499s-78 -55.5 -132 -55.5c-14.667 0 -27.667 0.833008 -39 2.5s-22 4.16699 -32 7.5l-86 27c-12 3.33301 -23.5 6.16602 -34.5 8.49902s-20.833 3.5 -29.5 3.5c-22 0 -40.5 -6 -55.5 -18s-27.167 -30.667 -36.5 -56h-106
c17.333 76 43 132.167 77 168.5s77 54.5 129 54.5c13.333 0 26.833 -1 40.5 -3s26.834 -5 39.501 -9l89 -27c10 -2.66699 20 -5 30 -7s18.333 -3 25 -3c24 0 43.667 6.33301 59 19s27 33 35 61h106z" />
    <glyph glyph-name="Odieresis" unicode="&#xd6;" horiz-adv-x="1409" 
d="M705 233c90 0 159.833 41.668 209.5 125.001s74.5 201.666 74.5 354.999s-24.667 271.5 -74 354.5s-119.333 124.5 -210 124.5s-160.5 -41.333 -209.5 -124s-73.5 -201 -73.5 -355s24.5 -272.5 73.5 -355.5s118.833 -124.5 209.5 -124.5zM705 -26.999
c-191.333 0 -345.333 67.5 -462 202.5s-175 314.167 -175 537.5c0 222.667 58.167 401.167 174.5 535.5s270.5 201.5 462.5 201.5c191.333 0 345.5 -67.333 462.5 -202s175.5 -313 175.5 -535c0 -222.667 -58.5 -401.667 -175.5 -537s-271.167 -203 -462.5 -203zM771 1618
v238h215v-238h-215zM424 1618v238h215v-238h-215z" />
    <glyph glyph-name="multiply" unicode="&#xd7;" horiz-adv-x="1706" 
d="M416 1202l450 -450l451 450l141 -139l-450 -453l450 -450l-141 -140l-451 451l-450 -451l-140 140l451 450l-451 453z" />
    <glyph glyph-name="Oslash" unicode="&#xd8;" horiz-adv-x="1409" 
d="M524 293c23.333 -24.667 50.332 -43.501 80.999 -56.501s63 -19.5 97 -19.5c94 0 166.667 43.667 218 131s77 211 77 371c0 45.333 -3.16699 90.333 -9.5 135s-16.166 88.334 -29.499 131.001zM99.999 -125.001l168.001 274.998
c-64.667 66.667 -114.167 148.167 -148.5 244.5s-51.5 201.833 -51.5 316.5c0 222.667 58.333 401.5 175 536.5s270.667 202.5 462 202.5c51.333 0 103.666 -7.16699 156.999 -21.5s105.333 -35.166 156 -62.499l112 182h179l-168 -272c66 -68 116.167 -150 150.5 -246
s51.5 -201.667 51.5 -317c0 -120 -17.5 -227.667 -52.5 -323s-87.5 -178.333 -157.5 -249c-56 -55.333 -119.833 -97.166 -191.5 -125.499s-150.5 -42.5 -236.5 -42.5c-54.667 0 -108.5 7.33301 -161.5 22s-103.833 36 -152.5 64l-115 -184h-176zM451 439.997l434 695
c-24 24 -50.833 42.167 -80.5 54.5s-62.167 18.5 -97.5 18.5c-91.333 0 -163 -42 -215 -126s-78 -200.333 -78 -349c0 -52 3 -102.5 9 -151.5s15.333 -96.167 28 -141.5z" />
    <glyph glyph-name="Ugrave" unicode="&#xd9;" horiz-adv-x="1343" 
d="M127 1421l334.001 0.000976562v-917c0 -94 19.5 -162.667 58.5 -206s100.833 -65 185.5 -65c78.667 0 138.5 23.5 179.5 70.5s61.5 115.833 61.5 206.5v911h264v-936c0 -170 -45.333 -298.167 -136 -384.5s-226 -129.5 -406 -129.5c-108.667 0 -203 17.833 -283 53.5
s-144 88.167 -192 157.5c-22.667 33.333 -39.334 75.166 -50.001 125.499s-16 112.5 -16 186.5v927zM730.001 1563l-308 362h244l199 -362h-135z" />
    <glyph glyph-name="Uacute" unicode="&#xda;" horiz-adv-x="1343" 
d="M127 1421l334.001 0.000976562v-917c0 -94 19.5 -162.667 58.5 -206s100.833 -65 185.5 -65c78.667 0 138.5 23.5 179.5 70.5s61.5 115.833 61.5 206.5v911h264v-936c0 -170 -45.333 -298.167 -136 -384.5s-226 -129.5 -406 -129.5c-108.667 0 -203 17.833 -283 53.5
s-144 88.167 -192 157.5c-22.667 33.333 -39.334 75.166 -50.001 125.499s-16 112.5 -16 186.5v927zM545.001 1563l199 362h246l-310 -362h-135z" />
    <glyph glyph-name="Ucircumflex" unicode="&#xdb;" horiz-adv-x="1343" 
d="M127 1421l334.001 0.000976562v-917c0 -94 19.5 -162.667 58.5 -206s100.833 -65 185.5 -65c78.667 0 138.5 23.5 179.5 70.5s61.5 115.833 61.5 206.5v911h264v-936c0 -170 -45.333 -298.167 -136 -384.5s-226 -129.5 -406 -129.5c-108.667 0 -203 17.833 -283 53.5
s-144 88.167 -192 157.5c-22.667 33.333 -39.334 75.166 -50.001 125.499s-16 112.5 -16 186.5v927zM398.001 1563l194 362h226l194 -362h-135l-172 217l-172 -217h-135z" />
    <glyph glyph-name="Udieresis" unicode="&#xdc;" horiz-adv-x="1343" 
d="M127 1421l334.001 0.000976562v-917c0 -94 19.5 -162.667 58.5 -206s100.833 -65 185.5 -65c78.667 0 138.5 23.5 179.5 70.5s61.5 115.833 61.5 206.5v911h264v-936c0 -170 -45.333 -298.167 -136 -384.5s-226 -129.5 -406 -129.5c-108.667 0 -203 17.833 -283 53.5
s-144 88.167 -192 157.5c-22.667 33.333 -39.334 75.166 -50.001 125.499s-16 112.5 -16 186.5v927zM771.001 1618v238h215v-238h-215zM424.001 1618v238h215v-238h-215z" />
    <glyph glyph-name="Yacute" unicode="&#xdd;" horiz-adv-x="1106" 
d="M399 0v606l-473 815h363l303 -551l297 551h295l-455 -809v-612h-330zM393 1563l199 362h246l-310 -362h-135z" />
    <glyph glyph-name="Thorn" unicode="&#xde;" horiz-adv-x="1272" 
d="M467 920v-388h180c78 0 137.833 17 179.5 51s62.5 82.667 62.5 146c0 59.333 -19.5 106 -58.5 140s-92.5 51 -160.5 51h-203zM135 1421l332 0.000976562v-250h225c181.333 0 318.5 -37.333 411.5 -112s139.5 -185.334 139.5 -332.001
c0 -130 -46.333 -235.167 -139 -315.5s-215 -120.5 -367 -120.5h-270v-291h-332v1421z" />
    <glyph glyph-name="germandbls" unicode="&#xdf;" horiz-adv-x="1280" 
d="M139 -102l0.00195312 859.996h-94v209h94c8.66699 172.667 59.5 305.167 152.5 397.5s222.5 138.5 388.5 138.5c126 0 227.167 -29.833 303.5 -89.5s114.5 -137.5 114.5 -233.5c0 -69.333 -25.667 -130.166 -77 -182.499s-118.666 -85.833 -201.999 -100.5
c-12 -2 -27.667 -4.33301 -47 -7c-36.667 -5.33301 -55 -12.666 -55 -21.999c0 -7.33301 28.5 -23.333 85.5 -48s106.167 -47.334 147.5 -68.001c105.333 -54 182.166 -111.833 230.499 -173.5s72.5 -132.167 72.5 -211.5c0 -113.333 -45.333 -207.666 -136 -282.999
s-205.667 -113 -345 -113c-39.333 0 -78.166 3.33301 -116.499 10s-76.5 16.334 -114.5 29.001l69 213c28.667 -12 55.667 -21.167 81 -27.5s49.666 -9.5 72.999 -9.5c60 0 108.167 14.667 144.5 44s54.5 68 54.5 116c0 35.333 -12.833 65.833 -38.5 91.5
s-86.167 60.167 -181.5 103.5c-101.333 46 -167.833 87 -199.5 123s-47.5 81 -47.5 135c0 36 7 71.333 21 106s35.333 70 64 106c71.333 2.66699 127.166 16.834 167.499 42.501s60.5 60.167 60.5 103.5c0 37.333 -14.833 67.833 -44.5 91.5s-68.834 35.5 -117.501 35.5
c-68 0 -120.5 -26 -157.5 -78s-55.5 -126.333 -55.5 -223v-1085h-295z" />
    <glyph glyph-name="agrave" unicode="&#xe0;" horiz-adv-x="1171" 
d="M793 0c-6 23.333 -10.6719 48.834 -14.0049 76.501s-5.66602 58.5 -6.99902 92.5c-36 -63.333 -83.667 -111.833 -143 -145.5s-127.666 -50.5 -204.999 -50.5c-113.333 0 -203.166 29 -269.499 87s-99.5 136.333 -99.5 235c0 124.667 59.833 219.167 179.5 283.5
s296.834 97.5 531.501 99.5v45c0 53.333 -14.833 93.666 -44.5 120.999s-73.5 41 -131.5 41c-64 0 -114.5 -12.5 -151.5 -37.5s-59.5 -61.833 -67.5 -110.5l-287 31c24.667 103.333 80.834 181.333 168.501 234s205.5 79 353.5 79c164 0 281.833 -32 353.5 -96
s107.5 -169 107.5 -315v-467c0 -46.667 2.5 -86.5 7.5 -119.5s12.833 -60.833 23.5 -83.5h-305zM765.995 516.001c-125.333 -2 -221.167 -20.332 -287.5 -54.999s-99.5 -84 -99.5 -148c0 -43.333 14 -77 42 -101s67.333 -36 118 -36c64.667 0 118.667 23.167 162 69.5
s65 105.166 65 176.499v94zM610.994 1192l-308 362h244l199 -362h-135z" />
    <glyph glyph-name="aacute" unicode="&#xe1;" horiz-adv-x="1171" 
d="M793 0c-6 23.333 -10.6719 48.834 -14.0049 76.501s-5.66602 58.5 -6.99902 92.5c-36 -63.333 -83.667 -111.833 -143 -145.5s-127.666 -50.5 -204.999 -50.5c-113.333 0 -203.166 29 -269.499 87s-99.5 136.333 -99.5 235c0 124.667 59.833 219.167 179.5 283.5
s296.834 97.5 531.501 99.5v45c0 53.333 -14.833 93.666 -44.5 120.999s-73.5 41 -131.5 41c-64 0 -114.5 -12.5 -151.5 -37.5s-59.5 -61.833 -67.5 -110.5l-287 31c24.667 103.333 80.834 181.333 168.501 234s205.5 79 353.5 79c164 0 281.833 -32 353.5 -96
s107.5 -169 107.5 -315v-467c0 -46.667 2.5 -86.5 7.5 -119.5s12.833 -60.833 23.5 -83.5h-305zM765.995 516.001c-125.333 -2 -221.167 -20.332 -287.5 -54.999s-99.5 -84 -99.5 -148c0 -43.333 14 -77 42 -101s67.333 -36 118 -36c64.667 0 118.667 23.167 162 69.5
s65 105.166 65 176.499v94zM425.994 1192l199 362h246l-310 -362h-135z" />
    <glyph glyph-name="acircumflex" unicode="&#xe2;" horiz-adv-x="1171" 
d="M793 0c-6 23.333 -10.6719 48.834 -14.0049 76.501s-5.66602 58.5 -6.99902 92.5c-36 -63.333 -83.667 -111.833 -143 -145.5s-127.666 -50.5 -204.999 -50.5c-113.333 0 -203.166 29 -269.499 87s-99.5 136.333 -99.5 235c0 124.667 59.833 219.167 179.5 283.5
s296.834 97.5 531.501 99.5v45c0 53.333 -14.833 93.666 -44.5 120.999s-73.5 41 -131.5 41c-64 0 -114.5 -12.5 -151.5 -37.5s-59.5 -61.833 -67.5 -110.5l-287 31c24.667 103.333 80.834 181.333 168.501 234s205.5 79 353.5 79c164 0 281.833 -32 353.5 -96
s107.5 -169 107.5 -315v-467c0 -46.667 2.5 -86.5 7.5 -119.5s12.833 -60.833 23.5 -83.5h-305zM765.995 516.001c-125.333 -2 -221.167 -20.332 -287.5 -54.999s-99.5 -84 -99.5 -148c0 -43.333 14 -77 42 -101s67.333 -36 118 -36c64.667 0 118.667 23.167 162 69.5
s65 105.166 65 176.499v94zM278.994 1192l194 362h226l194 -362h-135l-172 217l-172 -217h-135z" />
    <glyph glyph-name="atilde" unicode="&#xe3;" horiz-adv-x="1171" 
d="M793 0c-6 23.333 -10.6719 48.834 -14.0049 76.501s-5.66602 58.5 -6.99902 92.5c-36 -63.333 -83.667 -111.833 -143 -145.5s-127.666 -50.5 -204.999 -50.5c-113.333 0 -203.166 29 -269.499 87s-99.5 136.333 -99.5 235c0 124.667 59.833 219.167 179.5 283.5
s296.834 97.5 531.501 99.5v45c0 53.333 -14.833 93.666 -44.5 120.999s-73.5 41 -131.5 41c-64 0 -114.5 -12.5 -151.5 -37.5s-59.5 -61.833 -67.5 -110.5l-287 31c24.667 103.333 80.834 181.333 168.501 234s205.5 79 353.5 79c164 0 281.833 -32 353.5 -96
s107.5 -169 107.5 -315v-467c0 -46.667 2.5 -86.5 7.5 -119.5s12.833 -60.833 23.5 -83.5h-305zM765.995 516.001c-125.333 -2 -221.167 -20.332 -287.5 -54.999s-99.5 -84 -99.5 -148c0 -43.333 14 -77 42 -101s67.333 -36 118 -36c64.667 0 118.667 23.167 162 69.5
s65 105.166 65 176.499v94zM900.994 1495c-18.667 -78.667 -45.001 -136.499 -79.001 -173.499s-78 -55.5 -132 -55.5c-14.667 0 -27.667 0.833008 -39 2.5s-22 4.16699 -32 7.5l-86 27c-12 3.33301 -23.5 6.16602 -34.5 8.49902s-20.833 3.5 -29.5 3.5
c-22 0 -40.5 -6 -55.5 -18s-27.167 -30.667 -36.5 -56h-106c17.333 76 43 132.167 77 168.5s77 54.5 129 54.5c13.333 0 26.833 -1 40.5 -3s26.834 -5 39.501 -9l89 -27c10 -2.66699 20 -5 30 -7s18.333 -3 25 -3c24 0 43.667 6.33301 59 19s27 33 35 61h106z" />
    <glyph glyph-name="adieresis" unicode="&#xe4;" horiz-adv-x="1171" 
d="M793 0c-6 23.333 -10.6719 48.834 -14.0049 76.501s-5.66602 58.5 -6.99902 92.5c-36 -63.333 -83.667 -111.833 -143 -145.5s-127.666 -50.5 -204.999 -50.5c-113.333 0 -203.166 29 -269.499 87s-99.5 136.333 -99.5 235c0 124.667 59.833 219.167 179.5 283.5
s296.834 97.5 531.501 99.5v45c0 53.333 -14.833 93.666 -44.5 120.999s-73.5 41 -131.5 41c-64 0 -114.5 -12.5 -151.5 -37.5s-59.5 -61.833 -67.5 -110.5l-287 31c24.667 103.333 80.834 181.333 168.501 234s205.5 79 353.5 79c164 0 281.833 -32 353.5 -96
s107.5 -169 107.5 -315v-467c0 -46.667 2.5 -86.5 7.5 -119.5s12.833 -60.833 23.5 -83.5h-305zM765.995 516.001c-125.333 -2 -221.167 -20.332 -287.5 -54.999s-99.5 -84 -99.5 -148c0 -43.333 14 -77 42 -101s67.333 -36 118 -36c64.667 0 118.667 23.167 162 69.5
s65 105.166 65 176.499v94zM651.994 1247v238h215v-238h-215zM304.994 1247v238h215v-238h-215z" />
    <glyph glyph-name="aring" unicode="&#xe5;" horiz-adv-x="1171" 
d="M473 1409c0 -34.667 12.167 -64.167 36.5 -88.5s53.833 -36.5 88.5 -36.5s64.167 12.167 88.5 36.5s36.5 53.833 36.5 88.5s-12.167 64.167 -36.5 88.5s-53.833 36.5 -88.5 36.5s-64.167 -12.167 -88.5 -36.5s-36.5 -53.833 -36.5 -88.5zM336 1409
c0 74 25.167 136.167 75.5 186.5s112.5 75.5 186.5 75.5c73.333 0 135.333 -25.333 186 -76s76 -112.667 76 -186c0 -74 -25.167 -136.167 -75.5 -186.5s-112.5 -75.5 -186.5 -75.5s-136.167 25.167 -186.5 75.5s-75.5 112.5 -75.5 186.5zM793 0
c-6 23.333 -10.6719 48.834 -14.0049 76.501s-5.66602 58.5 -6.99902 92.5c-36 -63.333 -83.667 -111.833 -143 -145.5s-127.666 -50.5 -204.999 -50.5c-113.333 0 -203.166 29 -269.499 87s-99.5 136.333 -99.5 235c0 124.667 59.833 219.167 179.5 283.5
s296.834 97.5 531.501 99.5v45c0 53.333 -14.833 93.666 -44.5 120.999s-73.5 41 -131.5 41c-64 0 -114.5 -12.5 -151.5 -37.5s-59.5 -61.833 -67.5 -110.5l-287 31c24.667 103.333 80.834 181.333 168.501 234s205.5 79 353.5 79c164 0 281.833 -32 353.5 -96
s107.5 -169 107.5 -315v-467c0 -46.667 2.5 -86.5 7.5 -119.5s12.833 -60.833 23.5 -83.5h-305zM765.995 516.001c-125.333 -2 -221.167 -20.332 -287.5 -54.999s-99.5 -84 -99.5 -148c0 -43.333 14 -77 42 -101s67.333 -36 118 -36c64.667 0 118.667 23.167 162 69.5
s65 105.166 65 176.499v94z" />
    <glyph glyph-name="ae" unicode="&#xe6;" horiz-adv-x="1794" 
d="M1020 646l399.002 -1c0 76 -17.5 135 -52.5 177s-84.167 63 -147.5 63c-58.667 0 -105.834 -21.667 -141.501 -65s-54.834 -101.333 -57.501 -174zM737.002 516c-118.667 0 -210.833 -17.834 -276.5 -53.501s-98.5 -85.5 -98.5 -149.5c0 -42 13.833 -75.333 41.5 -100
s65.167 -37 112.5 -37c64.667 0 117.667 22.833 159 68.5s62 104.834 62 177.501v94zM805.003 189.999c-53.333 -71.333 -113.666 -125.332 -180.999 -161.999s-140 -55 -218 -55c-104.667 0 -189 29.167 -253 87.5s-96 135.166 -96 230.499
c0 124.667 55.333 220.334 166 287.001s269.667 100 477 100h37v45c0 54 -14.667 94.5 -44 121.5s-73.333 40.5 -132 40.5c-59.333 0 -106.833 -12.833 -142.5 -38.5s-57.167 -62.167 -64.5 -109.5l-270 31c22 97.333 74.667 173.833 158 229.5s187.666 83.5 312.999 83.5
c75.333 0 142.5 -10 201.5 -30s111.167 -51 156.5 -93c48.667 41.333 99.667 72.166 153 92.499s109 30.5 167 30.5c144.667 0 262.667 -51.667 354 -155s137 -238 137 -404c0 -5.33301 -0.333008 -13.5 -1 -24.5s-1 -19.167 -1 -24.5h-706v-14
c0 -86.667 19 -153.5 57 -200.5s92 -70.5 162 -70.5c49.333 0 91.333 13.667 126 41s59.667 66.333 75 117l278 -24c-32.667 -111.333 -91 -197.333 -175 -258s-186.667 -91 -308 -91c-93.333 0 -176 18.333 -248 55s-131.333 90.667 -178 162z" />
    <glyph glyph-name="ccedilla" unicode="&#xe7;" horiz-adv-x="1075" 
d="M752 653c-9.33301 68 -29.166 120.834 -59.499 158.501s-67.833 56.5 -112.5 56.5c-64 0 -112.5 -28.667 -145.5 -86s-49.5 -142 -49.5 -254c0 -110 16.833 -194.5 50.5 -253.5s81.834 -88.5 144.501 -88.5c49.333 0 90.166 19.167 122.499 57.5
s52.166 90.833 59.499 157.5l268 -30c-14 -122 -63.333 -219.167 -148 -291.5s-191 -108.5 -319 -108.5c-149.333 0 -271 51.333 -365 154s-141 235.667 -141 399c0 168 48.333 302.833 145 404.5s224.667 152.5 384 152.5c121.333 0 221.333 -35.333 300 -106
s126.667 -168.334 144 -293.001zM310 -431.999v119.001c52.667 -14 101.5 -24.333 146.5 -31s86.833 -10 125.5 -10c28.667 0 50.5 6 65.5 18s22.5 29.667 22.5 53c0 28 -10.333 48.333 -31 61s-54 19 -100 19c-12.667 0 -22.5 -0.166992 -29.5 -0.5s-13.5 -0.5 -19.5 -0.5
v204h98v-92h21c73.333 0 129.5 -16.333 168.5 -49s58.5 -79.334 58.5 -140.001c0 -62 -21.5 -109.833 -64.5 -143.5s-104.833 -50.5 -185.5 -50.5c-39.333 0 -82.333 3.66699 -129 11s-95.667 18 -147 32z" />
    <glyph glyph-name="egrave" unicode="&#xe8;" horiz-adv-x="1186" 
d="M1120 322c-34.667 -112 -97.168 -198.501 -187.501 -259.501s-200.5 -91.5 -330.5 -91.5c-163.333 0 -295 50.667 -395 152s-150 235 -150 401c0 162.667 52.333 296.167 157 400.5s238.667 156.5 402 156.5c158.667 0 283.334 -50.167 374.001 -150.5
s136 -238.5 136 -414.5v-43h-741c0 -91.333 19.833 -161.666 59.5 -210.999s96.167 -74 169.5 -74c52 0 96.333 13.833 133 41.5s62 66.5 76 116.5zM388.999 644.999l418 1c-1.33301 75.333 -20 133.333 -56 174s-87 61 -153 61c-62 0 -111.333 -20.833 -148 -62.5
s-57 -99.5 -61 -173.5zM618.999 1192l-308 362h244l199 -362h-135z" />
    <glyph glyph-name="eacute" unicode="&#xe9;" horiz-adv-x="1186" 
d="M1120 322c-34.667 -112 -97.168 -198.501 -187.501 -259.501s-200.5 -91.5 -330.5 -91.5c-163.333 0 -295 50.667 -395 152s-150 235 -150 401c0 162.667 52.333 296.167 157 400.5s238.667 156.5 402 156.5c158.667 0 283.334 -50.167 374.001 -150.5
s136 -238.5 136 -414.5v-43h-741c0 -91.333 19.833 -161.666 59.5 -210.999s96.167 -74 169.5 -74c52 0 96.333 13.833 133 41.5s62 66.5 76 116.5zM388.999 644.999l418 1c-1.33301 75.333 -20 133.333 -56 174s-87 61 -153 61c-62 0 -111.333 -20.833 -148 -62.5
s-57 -99.5 -61 -173.5zM433.999 1192l199 362h246l-310 -362h-135z" />
    <glyph glyph-name="ecircumflex" unicode="&#xea;" horiz-adv-x="1186" 
d="M1120 322c-34.667 -112 -97.168 -198.501 -187.501 -259.501s-200.5 -91.5 -330.5 -91.5c-163.333 0 -295 50.667 -395 152s-150 235 -150 401c0 162.667 52.333 296.167 157 400.5s238.667 156.5 402 156.5c158.667 0 283.334 -50.167 374.001 -150.5
s136 -238.5 136 -414.5v-43h-741c0 -91.333 19.833 -161.666 59.5 -210.999s96.167 -74 169.5 -74c52 0 96.333 13.833 133 41.5s62 66.5 76 116.5zM388.999 644.999l418 1c-1.33301 75.333 -20 133.333 -56 174s-87 61 -153 61c-62 0 -111.333 -20.833 -148 -62.5
s-57 -99.5 -61 -173.5zM286.999 1192l194 362h226l194 -362h-135l-172 217l-172 -217h-135z" />
    <glyph glyph-name="edieresis" unicode="&#xeb;" horiz-adv-x="1186" 
d="M1120 322c-34.667 -112 -97.168 -198.501 -187.501 -259.501s-200.5 -91.5 -330.5 -91.5c-163.333 0 -295 50.667 -395 152s-150 235 -150 401c0 162.667 52.333 296.167 157 400.5s238.667 156.5 402 156.5c158.667 0 283.334 -50.167 374.001 -150.5
s136 -238.5 136 -414.5v-43h-741c0 -91.333 19.833 -161.666 59.5 -210.999s96.167 -74 169.5 -74c52 0 96.333 13.833 133 41.5s62 66.5 76 116.5zM388.999 644.999l418 1c-1.33301 75.333 -20 133.333 -56 174s-87 61 -153 61c-62 0 -111.333 -20.833 -148 -62.5
s-57 -99.5 -61 -173.5zM659.999 1247v238h215v-238h-215zM312.999 1247v238h215v-238h-215z" />
    <glyph glyph-name="igrave" unicode="&#xec;" horiz-adv-x="545" 
d="M115 0v1053h315v-1053h-315zM297 1192l-308 362h244l199 -362h-135z" />
    <glyph glyph-name="iacute" unicode="&#xed;" horiz-adv-x="545" 
d="M115 0v1053h315v-1053h-315zM112 1192l199 362h246l-310 -362h-135z" />
    <glyph glyph-name="icircumflex" unicode="&#xee;" horiz-adv-x="545" 
d="M115 0v1053h315v-1053h-315zM-35 1192l194 362h226l194 -362h-135l-172 217l-172 -217h-135z" />
    <glyph glyph-name="idieresis" unicode="&#xef;" horiz-adv-x="545" 
d="M115 0v1053h315v-1053h-315zM338 1247v238h215v-238h-215zM-9 1247v238h215v-238h-215z" />
    <glyph glyph-name="eth" unicode="&#xf0;" horiz-adv-x="1178" 
d="M385 492c0 -98 17.668 -174.169 53.001 -228.502s84.666 -81.5 147.999 -81.5c66 0 117 26.333 153 79s54 127.334 54 224.001c0 101.333 -17.833 179.333 -53.5 234s-86.167 82 -151.5 82s-115.5 -26.667 -150.5 -80s-52.5 -129.666 -52.5 -228.999zM666.001 974.998
c-18.667 30 -38.002 59.333 -58.002 88s-41 56 -63 82l-273 -135l-49 98l252 127l-33.5 41.5l-35.5 44.5l163 131l65.5 -57l61.5 -54l226 111l49 -98l-193 -97c114.667 -122.667 200 -244.5 256 -365.5s84 -244.167 84 -369.5c0 -173.333 -46.667 -308.5 -140 -405.5
s-222.666 -145.5 -387.999 -145.5c-155.333 0 -282.666 49.667 -381.999 149s-149 226 -149 380c0 87.333 18.5 165.5 55.5 234.5s92.5 129.167 166.5 180.5c34 24 73 42.667 117 56s88 20 132 20c21.333 0 43.333 -1.33301 66 -4s46 -6.66699 70 -12z" />
    <glyph glyph-name="ntilde" unicode="&#xf1;" horiz-adv-x="1163" 
d="M117 0v1053h282v-168c34 64 77.667 112.667 131 146s115 50 185 50c116 0 202 -32.5 258 -97.5s84 -165.5 84 -301.5v-682h-305v662c0 64.667 -12 113.5 -36 146.5s-60 49.5 -108 49.5c-56 0 -101.333 -21.667 -136 -65s-52 -100.666 -52 -171.999v-621h-303zM897 1495
c-18.667 -78.667 -45.001 -136.499 -79.001 -173.499s-78 -55.5 -132 -55.5c-14.667 0 -27.667 0.833008 -39 2.5s-22 4.16699 -32 7.5l-86 27c-12 3.33301 -23.5 6.16602 -34.5 8.49902s-20.833 3.5 -29.5 3.5c-22 0 -40.5 -6 -55.5 -18s-27.167 -30.667 -36.5 -56h-106
c17.333 76 43 132.167 77 168.5s77 54.5 129 54.5c13.333 0 26.833 -1 40.5 -3s26.834 -5 39.501 -9l89 -27c10 -2.66699 20 -5 30 -7s18.333 -3 25 -3c24 0 43.667 6.33301 59 19s27 33 35 61h106z" />
    <glyph glyph-name="ograve" unicode="&#xf2;" horiz-adv-x="1178" 
d="M588 184c66.667 0 117.5 29.333 152.5 88s52.5 143.334 52.5 254.001c0 111.333 -17.667 196.5 -53 255.5s-86 88.5 -152 88.5c-66.667 0 -117.167 -29 -151.5 -87s-51.5 -143.667 -51.5 -257c0 -112.667 17 -197.834 51 -255.501s84.667 -86.5 152 -86.5zM588 -29
c-158.667 0 -286.832 51.001 -384.499 153.001s-146.5 236 -146.5 402c0 166.667 48.667 300.834 146 402.501s225.666 152.5 384.999 152.5c160 0 288.667 -50.833 386 -152.5s146 -235.834 146 -402.501s-48.667 -300.834 -146 -402.501s-226 -152.5 -386 -152.5z
M615.002 1192l-308 362h244l199 -362h-135z" />
    <glyph glyph-name="oacute" unicode="&#xf3;" horiz-adv-x="1178" 
d="M588 184c66.667 0 117.5 29.333 152.5 88s52.5 143.334 52.5 254.001c0 111.333 -17.667 196.5 -53 255.5s-86 88.5 -152 88.5c-66.667 0 -117.167 -29 -151.5 -87s-51.5 -143.667 -51.5 -257c0 -112.667 17 -197.834 51 -255.501s84.667 -86.5 152 -86.5zM588 -29
c-158.667 0 -286.832 51.001 -384.499 153.001s-146.5 236 -146.5 402c0 166.667 48.667 300.834 146 402.501s225.666 152.5 384.999 152.5c160 0 288.667 -50.833 386 -152.5s146 -235.834 146 -402.501s-48.667 -300.834 -146 -402.501s-226 -152.5 -386 -152.5z
M430.002 1192l199 362h246l-310 -362h-135z" />
    <glyph glyph-name="ocircumflex" unicode="&#xf4;" horiz-adv-x="1178" 
d="M588 184c66.667 0 117.5 29.333 152.5 88s52.5 143.334 52.5 254.001c0 111.333 -17.667 196.5 -53 255.5s-86 88.5 -152 88.5c-66.667 0 -117.167 -29 -151.5 -87s-51.5 -143.667 -51.5 -257c0 -112.667 17 -197.834 51 -255.501s84.667 -86.5 152 -86.5zM588 -29
c-158.667 0 -286.832 51.001 -384.499 153.001s-146.5 236 -146.5 402c0 166.667 48.667 300.834 146 402.501s225.666 152.5 384.999 152.5c160 0 288.667 -50.833 386 -152.5s146 -235.834 146 -402.501s-48.667 -300.834 -146 -402.501s-226 -152.5 -386 -152.5z
M283.002 1192l194 362h226l194 -362h-135l-172 217l-172 -217h-135z" />
    <glyph glyph-name="otilde" unicode="&#xf5;" horiz-adv-x="1178" 
d="M588 184c66.667 0 117.5 29.333 152.5 88s52.5 143.334 52.5 254.001c0 111.333 -17.667 196.5 -53 255.5s-86 88.5 -152 88.5c-66.667 0 -117.167 -29 -151.5 -87s-51.5 -143.667 -51.5 -257c0 -112.667 17 -197.834 51 -255.501s84.667 -86.5 152 -86.5zM588 -29
c-158.667 0 -286.832 51.001 -384.499 153.001s-146.5 236 -146.5 402c0 166.667 48.667 300.834 146 402.501s225.666 152.5 384.999 152.5c160 0 288.667 -50.833 386 -152.5s146 -235.834 146 -402.501s-48.667 -300.834 -146 -402.501s-226 -152.5 -386 -152.5z
M905.002 1495c-18.667 -78.667 -45.001 -136.499 -79.001 -173.499s-78 -55.5 -132 -55.5c-14.667 0 -27.667 0.833008 -39 2.5s-22 4.16699 -32 7.5l-86 27c-12 3.33301 -23.5 6.16602 -34.5 8.49902s-20.833 3.5 -29.5 3.5c-22 0 -40.5 -6 -55.5 -18
s-27.167 -30.667 -36.5 -56h-106c17.333 76 43 132.167 77 168.5s77 54.5 129 54.5c13.333 0 26.833 -1 40.5 -3s26.834 -5 39.501 -9l89 -27c10 -2.66699 20 -5 30 -7s18.333 -3 25 -3c24 0 43.667 6.33301 59 19s27 33 35 61h106z" />
    <glyph glyph-name="odieresis" unicode="&#xf6;" horiz-adv-x="1178" 
d="M588 184c66.667 0 117.5 29.333 152.5 88s52.5 143.334 52.5 254.001c0 111.333 -17.667 196.5 -53 255.5s-86 88.5 -152 88.5c-66.667 0 -117.167 -29 -151.5 -87s-51.5 -143.667 -51.5 -257c0 -112.667 17 -197.834 51 -255.501s84.667 -86.5 152 -86.5zM588 -29
c-158.667 0 -286.832 51.001 -384.499 153.001s-146.5 236 -146.5 402c0 166.667 48.667 300.834 146 402.501s225.666 152.5 384.999 152.5c160 0 288.667 -50.833 386 -152.5s146 -235.834 146 -402.501s-48.667 -300.834 -146 -402.501s-226 -152.5 -386 -152.5z
M656.002 1247v238h215v-238h-215zM309.002 1247v238h215v-238h-215z" />
    <glyph glyph-name="divide" unicode="&#xf7;" horiz-adv-x="1706" 
d="M854 369c41.333 0 77 -15 107 -45s45 -65.667 45 -107c0 -40.667 -15 -75.667 -45 -105s-65.667 -44 -107 -44c-42 0 -77.833 14.333 -107.5 43s-44.5 64 -44.5 106s14.833 77.833 44.5 107.5s65.5 44.5 107.5 44.5zM254 711h1198v-199h-1198v199zM854 1155
c41.333 0 77 -14.833 107 -44.5s45 -65.167 45 -106.5c0 -42 -14.833 -77.833 -44.5 -107.5s-65.5 -44.5 -107.5 -44.5s-77.833 14.833 -107.5 44.5s-44.5 65.5 -44.5 107.5s14.833 77.667 44.5 107s65.5 44 107.5 44z" />
    <glyph glyph-name="oslash" unicode="&#xf8;" horiz-adv-x="1178" 
d="M414 326l299.001 508.001c-16.667 16.667 -34.667 29 -54 37s-42.333 12 -69 12c-66.667 0 -118.834 -30 -156.501 -90s-56.5 -142.667 -56.5 -248c0 -40 3 -78.333 9 -115s15.333 -71.334 28 -104.001zM463.001 219.001c16 -16 33.5 -27.834 52.5 -35.501
s40.5 -11.5 64.5 -11.5c69.333 0 123.5 28.667 162.5 86s58.5 138 58.5 242c0 40 -3.16699 78.833 -9.5 116.5s-15.5 73.834 -27.5 108.501zM117.001 -127l131.001 211c-62.667 52 -110.167 115.5 -142.5 190.5s-48.5 158.833 -48.5 251.5
c0 166.667 48.667 300.834 146 402.501s225.666 152.5 384.999 152.5c38.667 0 77.167 -3.83301 115.5 -11.5s76.833 -19.5 115.5 -35.5l88 146h152l-127 -211c62 -52 108.833 -115.333 140.5 -190s47.5 -159 47.5 -253c0 -166.667 -48.667 -300.834 -146 -402.501
s-226 -152.5 -386 -152.5c-43.333 0 -84 4 -122 12s-74 19.667 -108 35l-90 -145h-151z" />
    <glyph glyph-name="ugrave" unicode="&#xf9;" horiz-adv-x="1163" 
d="M1047 1053l-0.000976562 -1053h-283v168c-34 -65.333 -77.5 -114.5 -130.5 -147.5s-114.5 -49.5 -184.5 -49.5c-117.333 0 -203.833 32.5 -259.5 97.5s-83.5 165.833 -83.5 302.5v682h306v-662c0 -64 12 -112.333 36 -145s59.667 -49 107 -49
c56.667 0 101.834 21.167 135.501 63.5s50.5 99.5 50.5 171.5v621h306zM606.999 1192l-308 362h244l199 -362h-135z" />
    <glyph glyph-name="uacute" unicode="&#xfa;" horiz-adv-x="1163" 
d="M1047 1053l-0.000976562 -1053h-283v168c-34 -65.333 -77.5 -114.5 -130.5 -147.5s-114.5 -49.5 -184.5 -49.5c-117.333 0 -203.833 32.5 -259.5 97.5s-83.5 165.833 -83.5 302.5v682h306v-662c0 -64 12 -112.333 36 -145s59.667 -49 107 -49
c56.667 0 101.834 21.167 135.501 63.5s50.5 99.5 50.5 171.5v621h306zM421.999 1192l199 362h246l-310 -362h-135z" />
    <glyph glyph-name="ucircumflex" unicode="&#xfb;" horiz-adv-x="1163" 
d="M1047 1053l-0.000976562 -1053h-283v168c-34 -65.333 -77.5 -114.5 -130.5 -147.5s-114.5 -49.5 -184.5 -49.5c-117.333 0 -203.833 32.5 -259.5 97.5s-83.5 165.833 -83.5 302.5v682h306v-662c0 -64 12 -112.333 36 -145s59.667 -49 107 -49
c56.667 0 101.834 21.167 135.501 63.5s50.5 99.5 50.5 171.5v621h306zM274.999 1192l194 362h226l194 -362h-135l-172 217l-172 -217h-135z" />
    <glyph glyph-name="udieresis" unicode="&#xfc;" horiz-adv-x="1163" 
d="M1047 1053l-0.000976562 -1053h-283v168c-34 -65.333 -77.5 -114.5 -130.5 -147.5s-114.5 -49.5 -184.5 -49.5c-117.333 0 -203.833 32.5 -259.5 97.5s-83.5 165.833 -83.5 302.5v682h306v-662c0 -64 12 -112.333 36 -145s59.667 -49 107 -49
c56.667 0 101.834 21.167 135.501 63.5s50.5 99.5 50.5 171.5v621h306zM647.999 1247v238h215v-238h-215zM300.999 1247v238h215v-238h-215z" />
    <glyph glyph-name="yacute" unicode="&#xfd;" horiz-adv-x="1001" 
d="M37 -379l0.000976562 235.001c30 -4.66699 57.5 -8.16699 82.5 -10.5s48.5 -3.5 70.5 -3.5c60.667 0 106.167 13 136.5 39s49.166 67.667 56.499 125l-393 1047h332l223 -703l229 703h240l-418 -1162c-36.667 -100.667 -84.5 -172.834 -143.5 -216.501
s-138.833 -65.5 -239.5 -65.5c-24 0 -50.5 1 -79.5 3s-61.167 5 -96.5 9zM342.001 1192l199 362h246l-310 -362h-135z" />
    <glyph glyph-name="thorn" unicode="&#xfe;" horiz-adv-x="1180" 
d="M420 401c0 -64.667 15.3311 -116.332 45.998 -154.999s71.334 -58 122.001 -58c60.667 0 108.167 28.833 142.5 86.5s51.5 137.5 51.5 239.5c0 105.333 -17.333 187.666 -52 246.999s-82 89 -142 89c-47.333 0 -87.166 -18.167 -119.499 -54.5
s-48.5 -81.833 -48.5 -136.5v-258zM116.998 1421h302.998v-508c31.333 54 70.833 95.167 118.5 123.5s100.834 42.5 159.501 42.5c121.333 0 220 -50.833 296 -152.5s114 -235.167 114 -400.5c0 -162.667 -38 -295.167 -114 -397.5s-172.333 -153.5 -289 -153.5
c-61.333 0 -115.666 13.167 -162.999 39.5s-88 65.833 -122 118.5v-498h-303v1786z" />
    <glyph glyph-name="ydieresis" unicode="&#xff;" horiz-adv-x="1001" 
d="M37 -379l0.000976562 235.001c30 -4.66699 57.5 -8.16699 82.5 -10.5s48.5 -3.5 70.5 -3.5c60.667 0 106.167 13 136.5 39s49.166 67.667 56.499 125l-393 1047h332l223 -703l229 703h240l-418 -1162c-36.667 -100.667 -84.5 -172.834 -143.5 -216.501
s-138.833 -65.5 -239.5 -65.5c-24 0 -50.5 1 -79.5 3s-61.167 5 -96.5 9zM568.001 1247v238h215v-238h-215zM221.001 1247v238h215v-238h-215z" />
    <glyph glyph-name="Cacute" unicode="&#x106;" horiz-adv-x="1305" 
d="M942 895c-6.66699 94 -32 167.665 -76 220.998s-100.667 80 -170 80c-92.667 0 -163.167 -41.333 -211.5 -124s-72.5 -203 -72.5 -361c0 -158.667 23.833 -278 71.5 -358s118.5 -120 212.5 -120c68 0 123.5 24 166.5 72s72.167 118.333 87.5 211l303 -31
c-24 -162.667 -84.833 -288.667 -182.5 -378s-223.834 -134 -378.501 -134c-191.333 0 -343.166 66.333 -455.499 199s-168.5 312.334 -168.5 539.001c0 225.333 56.667 404.833 170 538.5s265.333 200.5 456 200.5c158 0 285.833 -46.167 383.5 -138.5
s156.167 -222.166 175.5 -389.499zM526 1563l199 362h246l-310 -362h-135z" />
    <glyph glyph-name="cacute" unicode="&#x107;" horiz-adv-x="1075" 
d="M752 653c-9.33301 68 -29.166 120.834 -59.499 158.501s-67.833 56.5 -112.5 56.5c-64 0 -112.5 -28.667 -145.5 -86s-49.5 -142 -49.5 -254c0 -110 16.833 -194.5 50.5 -253.5s81.834 -88.5 144.501 -88.5c49.333 0 90.166 19.167 122.499 57.5
s52.166 90.833 59.499 157.5l268 -30c-14 -122 -63.333 -219.167 -148 -291.5s-191 -108.5 -319 -108.5c-149.333 0 -271 51.333 -365 154s-141 235.667 -141 399c0 168 48.333 302.833 145 404.5s224.667 152.5 384 152.5c121.333 0 221.333 -35.333 300 -106
s126.667 -168.334 144 -293.001zM413 1192l199 362h246l-310 -362h-135z" />
    <glyph glyph-name="Ccaron" unicode="&#x10c;" horiz-adv-x="1305" 
d="M942 895c-6.66699 94 -32 167.665 -76 220.998s-100.667 80 -170 80c-92.667 0 -163.167 -41.333 -211.5 -124s-72.5 -203 -72.5 -361c0 -158.667 23.833 -278 71.5 -358s118.5 -120 212.5 -120c68 0 123.5 24 166.5 72s72.167 118.333 87.5 211l303 -31
c-24 -162.667 -84.833 -288.667 -182.5 -378s-223.834 -134 -378.501 -134c-191.333 0 -343.166 66.333 -455.499 199s-168.5 312.334 -168.5 539.001c0 225.333 56.667 404.833 170 538.5s265.333 200.5 456 200.5c158 0 285.833 -46.167 383.5 -138.5
s156.167 -222.166 175.5 -389.499zM379 1925h135l172 -217l172 217h135l-194 -362h-226z" />
    <glyph glyph-name="ccaron" unicode="&#x10d;" horiz-adv-x="1075" 
d="M752 653c-9.33301 68 -29.166 120.834 -59.499 158.501s-67.833 56.5 -112.5 56.5c-64 0 -112.5 -28.667 -145.5 -86s-49.5 -142 -49.5 -254c0 -110 16.833 -194.5 50.5 -253.5s81.834 -88.5 144.501 -88.5c49.333 0 90.166 19.167 122.499 57.5
s52.166 90.833 59.499 157.5l268 -30c-14 -122 -63.333 -219.167 -148 -291.5s-191 -108.5 -319 -108.5c-149.333 0 -271 51.333 -365 154s-141 235.667 -141 399c0 168 48.333 302.833 145 404.5s224.667 152.5 384 152.5c121.333 0 221.333 -35.333 300 -106
s126.667 -168.334 144 -293.001zM266 1554h135l172 -217l172 217h135l-194 -362h-226z" />
    <glyph glyph-name="dcroat" unicode="&#x111;" horiz-adv-x="1178" 
d="M756 655c0 66.667 -15.999 118.167 -47.999 154.5s-77 54.5 -135 54.5c-59.333 0 -104.833 -28.667 -136.5 -86s-47.5 -140.666 -47.5 -249.999c0 -110.667 15.667 -193.834 47 -249.501s78.666 -83.5 141.999 -83.5c50 0 92.167 20.333 126.5 61s51.5 92.667 51.5 156
v243zM756.001 1421l305 -0.000976562v-110h108v-127h-108v-1184h-287l-2 162c-34.667 -61.333 -76.667 -108.166 -126 -140.499s-103.666 -48.5 -162.999 -48.5c-128.667 0 -230.834 49.5 -306.501 148.5s-113.5 232.5 -113.5 400.5c0 168.667 38.333 303.667 115 405
s177 152 301 152c55.333 0 105.833 -12 151.5 -36s87.5 -60.333 125.5 -109v250h-287v127h287v110z" />
    <glyph glyph-name="Gbreve" unicode="&#x11e;" horiz-adv-x="1368" 
d="M1120 -6l-57.002 158c-36.667 -54 -89 -95.833 -157 -125.5s-145.333 -44.5 -232 -44.5c-182.667 0 -329.334 66.333 -440.001 199s-166 310 -166 532c0 224.667 58.5 403.667 175.5 537s274.167 200 471.5 200c150.667 0 274.834 -40.5 372.501 -121.5
s161.834 -196.833 192.501 -347.5l-313 -41c-18.667 82 -50.667 145.167 -96 189.5s-100.666 66.5 -165.999 66.5c-94.667 0 -166.167 -40.833 -214.5 -122.5s-72.5 -202.5 -72.5 -362.5c0 -157.333 25.333 -275.5 76 -354.5s126.334 -118.5 227.001 -118.5
c71.333 0 131.166 22.167 179.499 66.5s73.833 100.833 76.5 169.5l2 46h-289v240h600v-766h-170zM380.998 1889l116.999 -0.000976562c4 -49.333 20.833 -85.333 50.5 -108s74.834 -34 135.501 -34c61.333 0 106.833 11.333 136.5 34s46.167 58.334 49.5 107.001l115 1
c-7.33301 -100.667 -35.333 -174.667 -84 -222s-121 -71 -217 -71c-96.667 0 -169.5 23.667 -218.5 71s-77.167 121.333 -84.5 222z" />
    <glyph glyph-name="gbreve" unicode="&#x11f;" horiz-adv-x="1137" 
d="M354 33c-22.667 -12 -39.832 -26.666 -51.499 -43.999s-17.5 -37 -17.5 -59c0 -44.667 24.5 -77.334 73.5 -98.001s127.5 -31 235.5 -31c99.333 0 169.833 9.33301 211.5 28s62.5 49 62.5 91c0 28 -11.833 49.5 -35.5 64.5s-60.834 24.167 -111.501 27.5z
M569.002 907.001c-51.333 0 -92.833 -16.001 -124.5 -48.001s-47.5 -74 -47.5 -126c0 -54 15.333 -96.5 46 -127.5s72.667 -46.5 126 -46.5c54 0 96.167 15.5 126.5 46.5s45.5 73.5 45.5 127.5c0 52.667 -15.667 94.834 -47 126.501s-73 47.5 -125 47.5zM262.002 477
c-52.667 28.667 -92.833 64.499 -120.5 107.499s-41.5 91.167 -41.5 144.5c0 102.667 42.5 186 127.5 250s196.833 96 335.5 96c38 0 75 -3.16699 111 -9.5s71.333 -16.166 106 -29.499c8.66699 76 33.667 132.333 75 169s101 55 179 55c12.667 0 38 -1 76 -3
c11.333 -0.666992 20.333 -1.33398 27 -2.00098l-7 -217c-2.66699 0.666992 -6.33398 1 -11.001 1c-29.333 2 -50 3 -62 3c-42 0 -73.667 -5.83301 -95 -17.5s-35.333 -30.834 -42 -57.501c36.667 -36 64.167 -74 82.5 -114s27.5 -82 27.5 -126
c0 -103.333 -39.667 -184.833 -119 -244.5s-188.333 -89.5 -327 -89.5c-32.667 0 -62.5 1.33301 -89.5 4s-51.833 7 -74.5 13c-22 -9.33301 -38.5 -20.166 -49.5 -32.499s-16.5 -26.166 -16.5 -41.499c0 -24.667 8.5 -43.334 25.5 -56.001s43.5 -20 79.5 -22l321 -14
c113.333 -5.33301 202.833 -34.333 268.5 -87s98.5 -121.334 98.5 -206.001c0 -104 -47.833 -184.667 -143.5 -242s-230.834 -86 -405.501 -86c-196.667 0 -342.5 22.5 -437.5 67.5s-142.5 114.167 -142.5 207.5c0 46.667 14.167 87.834 42.5 123.501
s67.5 61.834 117.5 78.501c-33.333 18.667 -58.666 41.5 -75.999 68.5s-26 57.5 -26 91.5c0 51.333 15.333 95 46 131s77.334 64.667 140.001 86zM266.003 1518l116.999 -0.000976562c4 -49.333 20.833 -85.333 50.5 -108s74.834 -34 135.501 -34
c61.333 0 106.833 11.333 136.5 34s46.167 58.334 49.5 107.001l115 1c-7.33301 -100.667 -35.333 -174.667 -84 -222s-121 -71 -217 -71c-96.667 0 -169.5 23.667 -218.5 71s-77.167 121.333 -84.5 222z" />
    <glyph glyph-name="Idotaccent" unicode="&#x130;" horiz-adv-x="614" 
d="M137 0v1421h338v-1421h-338zM194 1612v252h228v-252h-228z" />
    <glyph glyph-name="dotlessi" unicode="&#x131;" horiz-adv-x="545" 
d="M115 0v1053h315v-1053h-315z" />
    <glyph glyph-name="Lslash" unicode="&#x141;" horiz-adv-x="1047" 
d="M143 0v561l-135 -94v219l135 96v639h334v-471l283 201v-221l-283 -199v-469h592v-262h-926z" />
    <glyph glyph-name="lslash" unicode="&#x142;" horiz-adv-x="561" 
d="M123 0v586l-115 -80v158l115 79v678h315v-501l115 79v-159l-115 -80v-760h-315z" />
    <glyph glyph-name="OE" unicode="&#x152;" horiz-adv-x="2003" 
d="M930 1042c-23.333 49.333 -54 86.667 -92 112s-82.333 38 -133 38c-90.667 0 -160.5 -41.333 -209.5 -124s-73.5 -201 -73.5 -355s24.5 -272.5 73.5 -355.5s118.833 -124.5 209.5 -124.5c51.333 0 96.333 13.167 135 39.5s68.667 63.833 90 112.5v657zM930 0.000976562
v47.0029c-36 -24.667 -74.333 -43.167 -115 -55.5s-85 -18.5 -133 -18.5c-75.333 0 -148.166 14.667 -218.499 44s-133.5 71.333 -189.5 126c-68 68 -119.333 149.667 -154 245s-52 203.666 -52 324.999s17.167 229.166 51.5 323.499s85.833 175.5 154.5 243.5
c56.667 55.333 120.167 97.5 190.5 126.5s144.166 43.5 221.499 43.5c50 0 95 -6.33301 135 -19s76.333 -32.334 109 -59.001v49h1003v-256h-686v-309h553v-240h-553v-356h699v-260h-1016z" />
    <glyph glyph-name="oe" unicode="&#x153;" horiz-adv-x="1864" 
d="M1090 645l404.999 1c-1.33301 75.333 -19.5 133.333 -54.5 174s-84.5 61 -148.5 61c-59.333 0 -107.166 -21.167 -143.499 -63.5s-55.833 -99.833 -58.5 -172.5zM372.999 526c0 -108 17.3311 -192 51.998 -252s82.667 -90 144 -90c64 0 113.833 29.333 149.5 88
s53.5 140.667 53.5 246c0 111.333 -17.667 197.833 -53 259.5s-84.666 92.5 -147.999 92.5s-112.166 -29.667 -146.499 -89s-51.5 -144.333 -51.5 -255zM929.997 119c-46 -48 -99.1699 -84.333 -159.503 -109s-126.833 -37 -199.5 -37
c-152.667 0 -276.167 50.833 -370.5 152.5s-141.5 235.167 -141.5 400.5c0 168 47.333 302.5 142 403.5s220.334 151.5 377.001 151.5c72 0 138 -12.5 198 -37.5s112 -61.5 156 -109.5c43.333 47.333 95.833 83.666 157.5 108.999s129.167 38 202.5 38
c156 0 280.667 -51 374 -153s140 -238.667 140 -410c0 -4.66699 -0.333008 -12.167 -1 -22.5s-1 -17.833 -1 -22.5h-717v-18c0 -85.333 19.333 -151.166 58 -197.499s93.334 -69.5 164.001 -69.5c50.667 0 93.5 13.667 128.5 41s59.5 66.333 73.5 117l287 -24
c-34 -112.667 -93.667 -199 -179 -259s-190.666 -90 -315.999 -90c-79.333 0 -150.5 12.333 -213.5 37s-116.167 61 -159.5 109z" />
    <glyph glyph-name="Scedilla" unicode="&#x15e;" horiz-adv-x="1313" 
d="M41 399l308.996 60.001c20 -72.667 58.333 -128.5 115 -167.5s127.667 -58.5 213 -58.5c66.667 0 120.834 15.167 162.501 45.5s62.5 69.833 62.5 118.5c0 75.333 -89.333 136.333 -268 183l-47 12c-7.33301 2 -17.666 4.66699 -30.999 8
c-163.333 42 -278.666 95.333 -345.999 160c-33.333 31.333 -58.666 68 -75.999 110s-26 88 -26 138c0 131.333 51 238.166 153 320.499s236.667 123.5 404 123.5c134 0 247.5 -30.333 340.5 -91s160.833 -149 203.5 -265l-284 -78
c-22.667 61.333 -56.834 107.666 -102.501 138.999s-102.5 47 -170.5 47c-62.667 0 -113.5 -14.5 -152.5 -43.5s-58.5 -66.167 -58.5 -111.5c0 -68 82.667 -123.333 248 -166c26.667 -6.66699 48 -12.334 64 -17.001c6 -1.33301 15.333 -3.66602 28 -6.99902
c155.333 -40 266 -86.667 332 -140c43.333 -35.333 76 -77.666 98 -126.999s33 -105.333 33 -168c0 -130.667 -54.667 -238.5 -164 -323.5s-250.666 -127.5 -423.999 -127.5c-159.333 0 -293 37.5 -401 112.5s-179.667 179.5 -215 313.5zM427.996 -431.999v119.001
c52.667 -14 101.5 -24.333 146.5 -31s86.833 -10 125.5 -10c28.667 0 50.5 6 65.5 18s22.5 29.667 22.5 53c0 28 -10.333 48.333 -31 61s-54 19 -100 19c-12.667 0 -22.5 -0.166992 -29.5 -0.5s-13.5 -0.5 -19.5 -0.5v204h98v-92h21c73.333 0 129.5 -16.333 168.5 -49
s58.5 -79.334 58.5 -140.001c0 -62 -21.5 -109.833 -64.5 -143.5s-104.833 -50.5 -185.5 -50.5c-39.333 0 -82.333 3.66699 -129 11s-95.667 18 -147 32z" />
    <glyph glyph-name="scedilla" unicode="&#x15f;" horiz-adv-x="1065" 
d="M33 295l256.001 34.999c13.333 -48.667 42.166 -86.167 86.499 -112.5s100.833 -39.5 169.5 -39.5c55.333 0 99.5 10.5 132.5 31.5s49.5 48.833 49.5 83.5c0 50.667 -58.333 86 -175 106c-34.667 6 -61.667 11 -81 15c-142 27.333 -243 66.333 -303 117s-90 120 -90 208
c0 102.667 40.833 185.667 122.5 249s189.5 95 323.5 95c113.333 0 207.833 -23.167 283.5 -69.5s130.167 -114.5 163.5 -204.5l-248 -45c-18 40.667 -44 70.667 -78 90s-78.333 29 -133 29c-51.333 0 -90.5 -9 -117.5 -27s-40.5 -44 -40.5 -78
c0 -49.333 66 -85.666 198 -108.999c45.333 -8 81 -14.667 107 -20c129.333 -26 221.166 -63.5 275.499 -112.5s81.5 -116.5 81.5 -202.5c0 -107.333 -45.167 -193.666 -135.5 -258.999s-211.166 -98 -362.499 -98c-126 0 -232 28.167 -318 84.5
s-141.667 134.166 -167 233.499zM303.001 -432.001v119.001c52.667 -14 101.5 -24.333 146.5 -31s86.833 -10 125.5 -10c28.667 0 50.5 6 65.5 18s22.5 29.667 22.5 53c0 28 -10.333 48.333 -31 61s-54 19 -100 19c-12.667 0 -22.5 -0.166992 -29.5 -0.5
s-13.5 -0.5 -19.5 -0.5v204h98v-92h21c73.333 0 129.5 -16.333 168.5 -49s58.5 -79.334 58.5 -140.001c0 -62 -21.5 -109.833 -64.5 -143.5s-104.833 -50.5 -185.5 -50.5c-39.333 0 -82.333 3.66699 -129 11s-95.667 18 -147 32z" />
    <glyph glyph-name="Scaron" unicode="&#x160;" horiz-adv-x="1313" 
d="M41 399l308.996 60.001c20 -72.667 58.333 -128.5 115 -167.5s127.667 -58.5 213 -58.5c66.667 0 120.834 15.167 162.501 45.5s62.5 69.833 62.5 118.5c0 75.333 -89.333 136.333 -268 183l-47 12c-7.33301 2 -17.666 4.66699 -30.999 8
c-163.333 42 -278.666 95.333 -345.999 160c-33.333 31.333 -58.666 68 -75.999 110s-26 88 -26 138c0 131.333 51 238.166 153 320.499s236.667 123.5 404 123.5c134 0 247.5 -30.333 340.5 -91s160.833 -149 203.5 -265l-284 -78
c-22.667 61.333 -56.834 107.666 -102.501 138.999s-102.5 47 -170.5 47c-62.667 0 -113.5 -14.5 -152.5 -43.5s-58.5 -66.167 -58.5 -111.5c0 -68 82.667 -123.333 248 -166c26.667 -6.66699 48 -12.334 64 -17.001c6 -1.33301 15.333 -3.66602 28 -6.99902
c155.333 -40 266 -86.667 332 -140c43.333 -35.333 76 -77.666 98 -126.999s33 -105.333 33 -168c0 -130.667 -54.667 -238.5 -164 -323.5s-250.666 -127.5 -423.999 -127.5c-159.333 0 -293 37.5 -401 112.5s-179.667 179.5 -215 313.5zM349.996 1925h135l172 -217l172 217
h135l-194 -362h-226z" />
    <glyph glyph-name="scaron" unicode="&#x161;" horiz-adv-x="1065" 
d="M33 295l256.001 34.999c13.333 -48.667 42.166 -86.167 86.499 -112.5s100.833 -39.5 169.5 -39.5c55.333 0 99.5 10.5 132.5 31.5s49.5 48.833 49.5 83.5c0 50.667 -58.333 86 -175 106c-34.667 6 -61.667 11 -81 15c-142 27.333 -243 66.333 -303 117s-90 120 -90 208
c0 102.667 40.833 185.667 122.5 249s189.5 95 323.5 95c113.333 0 207.833 -23.167 283.5 -69.5s130.167 -114.5 163.5 -204.5l-248 -45c-18 40.667 -44 70.667 -78 90s-78.333 29 -133 29c-51.333 0 -90.5 -9 -117.5 -27s-40.5 -44 -40.5 -78
c0 -49.333 66 -85.666 198 -108.999c45.333 -8 81 -14.667 107 -20c129.333 -26 221.166 -63.5 275.499 -112.5s81.5 -116.5 81.5 -202.5c0 -107.333 -45.167 -193.666 -135.5 -258.999s-211.166 -98 -362.499 -98c-126 0 -232 28.167 -318 84.5
s-141.667 134.166 -167 233.499zM225.001 1554h135l172 -217l172 217h135l-194 -362h-226z" />
    <glyph glyph-name="Ydieresis" unicode="&#x178;" horiz-adv-x="1106" 
d="M399 0v606l-473 815h363l303 -551l297 551h295l-455 -809v-612h-330zM619 1618v238h215v-238h-215zM272 1618v238h215v-238h-215z" />
    <glyph glyph-name="Zcaron" unicode="&#x17d;" horiz-adv-x="1188" 
d="M43 0v223l684 944h-643v254h1049v-211l-691 -950h711v-260h-1110zM287 1925h135l172 -217l172 217h135l-194 -362h-226z" />
    <glyph glyph-name="zcaron" unicode="&#x17e;" horiz-adv-x="909" 
d="M25 0v190l485 650h-449v213h813v-164l-499 -676h516v-213h-866zM148 1554h135l172 -217l172 217h135l-194 -362h-226z" />
    <glyph glyph-name="florin" unicode="&#x192;" horiz-adv-x="1245" 
d="M813 948h231.003l-34 -198h-232l-104 -611c-24.667 -142 -78.167 -250.167 -160.5 -324.5s-190.166 -111.5 -323.499 -111.5c-24 0 -48.833 1.16699 -74.5 3.5s-51.834 6.16602 -78.501 11.499l37 218c15.333 -2 30.166 -3.5 44.499 -4.5s28.166 -1.5 41.499 -1.5
c57.333 0 103.666 18.167 138.999 54.5s59.333 89.833 72 160.5l104 605h-192l34 198h193l12 62c25.333 143.333 78.833 252.166 160.5 326.499s188.834 111.5 321.501 111.5c24.667 0 49.834 -1.16699 75.501 -3.5s52.167 -6.16602 79.5 -11.499l-39 -221
c-2.66699 0.666992 -6.66699 1.33398 -12 2.00098c-35.333 4.66699 -60 7 -74 7c-56.667 0 -102.834 -18.5 -138.501 -55.5s-59.834 -90.833 -72.501 -161.5z" />
    <glyph glyph-name="circumflex" unicode="&#x2c6;" 
d="M205 1192l194 362h226l194 -362h-135l-172 217l-172 -217h-135z" />
    <glyph glyph-name="caron" unicode="&#x2c7;" 
d="M205 1554h135l172 -217l172 217h135l-194 -362h-226z" />
    <glyph glyph-name="breve" unicode="&#x2d8;" 
d="M209 1518l116.999 -0.000976562c4 -49.333 20.833 -85.333 50.5 -108s74.834 -34 135.501 -34c61.333 0 106.833 11.333 136.5 34s46.167 58.334 49.5 107.001l115 1c-7.33301 -100.667 -35.333 -174.667 -84 -222s-121 -71 -217 -71c-96.667 0 -169.5 23.667 -218.5 71
s-77.167 121.333 -84.5 222z" />
    <glyph glyph-name="dotaccent" unicode="&#x2d9;" 
d="M399 1241v252h228v-252h-228z" />
    <glyph glyph-name="ring" unicode="&#x2da;" 
d="M387 1434c0 -35.333 12 -65 36 -89s53.667 -36 89 -36c36 0 66.167 11.833 90.5 35.5s36.5 53.5 36.5 89.5c0 34.667 -12.5 64.5 -37.5 89.5s-54.833 37.5 -89.5 37.5s-64.167 -12.5 -88.5 -37.5s-36.5 -54.833 -36.5 -89.5zM252 1436c0 73.333 25 135 75 185
s111.667 75 185 75s135.333 -25.167 186 -75.5s76 -111.833 76 -184.5c0 -74 -25.167 -136.167 -75.5 -186.5s-112.5 -75.5 -186.5 -75.5c-73.333 0 -135 25.167 -185 75.5s-75 112.5 -75 186.5z" />
    <glyph glyph-name="ogonek" unicode="&#x2db;" 
d="M616 0c-42.667 -37.333 -74 -72.833 -94 -106.5s-30 -67.167 -30 -100.5c0 -28 6.66699 -48.667 20 -62s34.333 -20 63 -20h95v-166h-78c-92 0 -158.333 14.5 -199 43.5s-61 75.5 -61 139.5c0 48.667 15 94.5 45 137.5s78.333 87.833 145 134.5h94z" />
    <glyph glyph-name="tilde" unicode="&#x2dc;" 
d="M827 1495c-18.667 -78.667 -45.001 -136.499 -79.001 -173.499s-78 -55.5 -132 -55.5c-14.667 0 -27.667 0.833008 -39 2.5s-22 4.16699 -32 7.5l-86 27c-12 3.33301 -23.5 6.16602 -34.5 8.49902s-20.833 3.5 -29.5 3.5c-22 0 -40.5 -6 -55.5 -18
s-27.167 -30.667 -36.5 -56h-106c17.333 76 43 132.167 77 168.5s77 54.5 129 54.5c13.333 0 26.833 -1 40.5 -3s26.834 -5 39.501 -9l89 -27c10 -2.66699 20 -5 30 -7s18.333 -3 25 -3c24 0 43.667 6.33301 59 19s27 33 35 61h106z" />
    <glyph glyph-name="hungarumlaut" unicode="&#x2dd;" 
d="M573 1192l160 362h215l-268 -362h-107zM297 1192l129 362h211l-240 -362h-100z" />
    <glyph glyph-name="Omega" unicode="&#x3a9;" horiz-adv-x="1575" 
d="M1227 256l291.001 -0.000976562v-256h-609v291c84 57.333 148 129.833 192 217.5s66 186.5 66 296.5c0 135.333 -33.833 241.833 -101.5 319.5s-160.834 116.5 -279.501 116.5c-118 0 -210.833 -38.833 -278.5 -116.5s-101.5 -184.167 -101.5 -319.5
c0 -109.333 22 -208.166 66 -296.499s108 -160.833 192 -217.5v-291h-609v256h291c-84 80.667 -146.333 167.334 -187 260.001s-61 193.667 -61 303c0 208.667 62.667 375.834 188 501.501s292 188.5 500 188.5c208.667 0 375.667 -62.833 501 -188.5
s188 -292.834 188 -501.501c0 -109.333 -20.333 -210.333 -61 -303s-103 -179.334 -187 -260.001z" />
    <glyph glyph-name="pi" unicode="&#x3c0;" horiz-adv-x="1319" 
d="M1354 1092l-39.001 -224h-176l-154 -868h-287l152 868h-238l-151 -868h-287l152 868h-25c-36.667 0 -64.667 -10.333 -84 -31s-32.333 -53.667 -39 -99l-213 -1c19.333 132.667 60.333 225 123 277s166.334 78 311.001 78h955z" />
    <glyph glyph-name="endash" unicode="&#x2013;" 
d="M0 436v205h1024v-205h-1024z" />
    <glyph glyph-name="emdash" unicode="&#x2014;" horiz-adv-x="2048" 
d="M0 641h2048v-205h-2048v205z" />
    <glyph glyph-name="quoteleft" unicode="&#x2018;" horiz-adv-x="532" 
d="M416 1163v-284h-293v264l176 291h125l-137 -271h129z" />
    <glyph glyph-name="quoteright" unicode="&#x2019;" horiz-adv-x="532" 
d="M129 1137v284h295v-264l-176 -291h-125l137 271h-131z" />
    <glyph glyph-name="quotesinglbase" unicode="&#x201a;" horiz-adv-x="532" 
d="M123 -4v287h295v-265l-178 -290h-123l137 268h-131z" />
    <glyph glyph-name="quotedblleft" unicode="&#x201c;" horiz-adv-x="879" 
d="M793 1163v-286h-295v266l176 291h125l-137 -271h131zM389 1163v-286h-295v266l176 291h125l-137 -271h131z" />
    <glyph glyph-name="quotedblright" unicode="&#x201d;" horiz-adv-x="879" 
d="M512 1137v284h295v-264l-178 -291h-123l135 271h-129zM109 1137v284h294v-264l-176 -291h-125l136 271h-129z" />
    <glyph glyph-name="quotedblbase" unicode="&#x201e;" horiz-adv-x="879" 
d="M506 -4v287h295v-265l-178 -290h-125l137 268h-129zM102 -4v287h295v-265l-178 -290h-125l137 268h-129z" />
    <glyph glyph-name="dagger" unicode="&#x2020;" 
d="M463 -297c-4 201.333 -12.3311 373.334 -24.998 516.001s-29.667 258 -51 346c16.667 50 31.667 104.167 45 162.5s25 121.833 35 190.5l-340 -78v243l340 -77l-80 415h250l-80 -415l342 77v-243l-342 78c11.333 -73.333 23.666 -139.333 36.999 -198
s27.666 -110.334 42.999 -155.001c-21.333 -72 -38.333 -178.833 -51 -320.5s-21.667 -322.167 -27 -541.5h-96z" />
    <glyph glyph-name="daggerdbl" unicode="&#x2021;" 
d="M387 569c16.667 44.667 31.8359 96.499 45.5029 155.499s25.167 123.5 34.5 193.5l-340 -78v243l340 -77l-80 415h252l-80 -415l340 77v-243l-342 78c11.333 -75.333 23.666 -142.166 36.999 -200.499s27.666 -108.5 42.999 -150.5
c-14.667 -37.333 -28.334 -84.5 -41.001 -141.5s-25 -126.5 -37 -208.5l340 78v-244l-342 78l82 -418h-252l80 418l-340 -78v244l340 -78c-12.667 82 -25.5 151.5 -38.5 208.5s-26.833 104.833 -41.5 143.5z" />
    <glyph glyph-name="bullet" unicode="&#x2022;" horiz-adv-x="1208" 
d="M307 762c0 82 28.999 151.666 86.999 208.999s128 86 210 86c81.333 0 150.833 -28.833 208.5 -86.5s86.5 -127.167 86.5 -208.5s-29.167 -151.166 -87.5 -209.499s-128.166 -87.5 -209.499 -87.5c-82 0 -151.667 29 -209 87s-86 128 -86 210z" />
    <glyph glyph-name="ellipsis" unicode="&#x2026;" horiz-adv-x="2048" 
d="M174 0v322h336v-322h-336zM856 0v322h336v-322h-336zM1540 0v322h336v-322h-336z" />
    <glyph glyph-name="perthousand" unicode="&#x2030;" horiz-adv-x="2451" 
d="M2202 348c0 72 -11.333 126.834 -34 164.501s-56 56.5 -100 56.5c-42 0 -74.667 -19.167 -98 -57.5s-35 -92.833 -35 -163.5c0 -72.667 11.5 -128.334 34.5 -167.001s55.833 -58 98.5 -58c44 0 77.333 19 100 57s34 94 34 168zM2066 721.001
c106.667 0 191.832 -34.167 255.499 -102.5s95.5 -159.833 95.5 -274.5c0 -110.667 -32 -200.167 -96 -268.5s-147.333 -102.5 -250 -102.5c-107.333 0 -192.666 33.667 -255.999 101s-95 158 -95 272s31.5 205 94.5 273s146.833 102 251.5 102zM1407 348.001
c0 72 -11.333 126.833 -34 164.5s-55.667 56.5 -99 56.5c-42.667 0 -75.5 -19.333 -98.5 -58s-34.5 -94.334 -34.5 -167.001c0 -71.333 11.5 -126 34.5 -164s55.833 -57 98.5 -57s75.5 19.333 98.5 58s34.5 94.334 34.5 167.001zM1272 721.001
c106.667 0 191.665 -33.999 254.998 -101.999s95 -159.667 95 -275c0 -110.667 -32.167 -200.167 -96.5 -268.5s-148.166 -102.5 -251.499 -102.5c-107.333 0 -192.166 33.667 -254.499 101s-93.5 158.666 -93.5 273.999c0 112.667 31.5 203 94.5 271s146.833 102 251.5 102
zM513.996 1081c0 72 -11.332 126.5 -33.999 163.5s-55.667 55.5 -99 55.5c-42 0 -74.667 -19.333 -98 -58s-35 -93 -35 -163c0 -71.333 11.667 -126.333 35 -165s56.666 -58 99.999 -58s76 19 98 57s33 94 33 168zM380.997 1452c106 0 190.501 -33.999 253.501 -101.999
s94.5 -159.667 94.5 -275c0 -110.667 -31.833 -200 -95.5 -268s-147.167 -102 -250.5 -102c-106.667 0 -191.667 33.667 -255 101s-95 157.666 -95 270.999c0 114 31.667 205 95 273s147.666 102 252.999 102zM304.998 -11.9971l864 1446h181l-863 -1446h-182z" />
    <glyph glyph-name="guilsinglleft" unicode="&#x2039;" horiz-adv-x="469" 
d="M291 526l131 -352h-152l-213 352l213 353h152z" />
    <glyph glyph-name="guilsinglright" unicode="&#x203a;" horiz-adv-x="469" 
d="M184 526l-131 353h152l213 -353l-213 -352h-152z" />
    <glyph glyph-name="franc" unicode="&#x20a3;" horiz-adv-x="1864" 
d="M135 0v1421h979v-256h-647v-325h508v-246h-508v-594h-332zM1229 0l-0.000976562 1053h272v-222c24 85.333 59.833 148.333 107.5 189s108.834 61 183.501 61c6.66699 0 19.667 -0.666992 39 -2c6 -0.666992 10.667 -1.33398 14 -2.00098v-284h-5
c-26.667 2.66699 -46 4 -58 4c-78 0 -138.833 -24.833 -182.5 -74.5s-65.5 -118.5 -65.5 -206.5v-516h-305z" />
    <glyph glyph-name="trademark" unicode="&#x2122;" horiz-adv-x="1706" 
d="M803 1462h196l127 -332l123 332h197v-547h-135v410l-154 -410h-61l-158 410v-410h-135v547zM207 1462h485v-112h-168v-435h-149v435h-168v112z" />
    <glyph glyph-name="partialdiff" unicode="&#x2202;" horiz-adv-x="1094" 
d="M762 662c12.667 66 22.3311 128.834 28.998 188.501s10 111.5 10 155.5c0 66.667 -8.66699 119.167 -26 157.5s-40.666 57.5 -69.999 57.5s-78 -24.333 -146 -73s-121.333 -73 -160 -73c-28 0 -51.667 10 -71 30s-29 44.333 -29 73c0 42.667 28.833 82 86.5 118
s127.834 54 210.501 54c128 0 231 -53.833 309 -161.5s117 -251.834 117 -432.501c0 -226 -52.167 -412.667 -156.5 -560s-236.5 -221 -396.5 -221c-114 0 -208 38.167 -282 114.5s-111 173.5 -111 291.5c0 132 38.667 241.833 116 329.5s173 131.5 287 131.5
c68 0 124.667 -14.5 170 -43.5s83 -74.5 113 -136.5zM699.997 518.001c0 77.333 -12.835 136.667 -38.502 178s-62.5 62 -110.5 62c-67.333 0 -123.166 -44.667 -167.499 -134s-66.5 -203 -66.5 -341c0 -78 12.833 -137.167 38.5 -177.5s62.834 -60.5 111.501 -60.5
c67.333 0 123 44.5 167 133.5s66 202.167 66 339.5z" />
    <glyph glyph-name="Delta" unicode="&#x2206;" horiz-adv-x="1427" 
d="M713 1110l-326 -854h653zM563 1473h301l563 -1473h-1427z" />
    <glyph glyph-name="product" unicode="&#x220f;" horiz-adv-x="1612" 
d="M150 1473h1308v-1866h-344v1577h-620v-1577h-344v1866z" />
    <glyph glyph-name="summation" unicode="&#x2211;" horiz-adv-x="1470" 
d="M66 1473h1308v-265h-878l620 -645l-622 -690h933v-266h-1386v172l698 772l-673 690v232z" />
    <glyph glyph-name="minus" unicode="&#x2212;" horiz-adv-x="1706" 
d="M254 713h1198v-203h-1198v203z" />
    <glyph glyph-name="fraction" unicode="&#x2215;" horiz-adv-x="342" 
d="M502 1434h180l-842 -1446h-182z" />
    <glyph glyph-name="periodcentered" unicode="&#x2219;" horiz-adv-x="623" 
d="M125 713c0 51.333 18.1689 95.167 54.502 131.5s80.166 54.5 131.499 54.5c52 0 96.5 -18.167 133.5 -54.5s55.5 -80.166 55.5 -131.499c0 -52 -18.5 -96.5 -55.5 -133.5s-81.5 -55.5 -133.5 -55.5c-50.667 0 -94.334 18.667 -131.001 56s-55 81.666 -55 132.999z" />
    <glyph glyph-name="radical" unicode="&#x221a;" horiz-adv-x="1346" 
d="M1141 1694h207v-129h-103l-592 -1606h-100l-311 858l-140 -51l-30 113l331 116l236 -661z" />
    <glyph glyph-name="infinity" unicode="&#x221e;" horiz-adv-x="1706" 
d="M942 561c30 -50 65.5 -87.667 106.5 -113s87.5 -38 139.5 -38c62.667 0 113.5 18.5 152.5 55.5s58.5 85.167 58.5 144.5c0 58 -18 105.667 -54 143s-81 56 -135 56c-50 0 -96 -19.167 -138 -57.5s-85.333 -101.833 -130 -190.5zM766 659
c-29.333 50 -64.5 87.499 -105.5 112.499s-87.833 37.5 -140.5 37.5c-62.667 0 -113.5 -18.667 -152.5 -56s-58.5 -85.666 -58.5 -144.999c0 -56.667 18 -103.834 54 -141.501s81 -56.5 135 -56.5c50 0 96 19.333 138 58s85.333 102.334 130 191.001zM858 456.999
c-45.333 -88 -94.165 -152.999 -146.498 -194.999s-110.5 -63 -174.5 -63c-93.333 0 -172 39.167 -236 117.5s-96 176.166 -96 293.499c0 122.667 28.5 221.667 85.5 297s131.5 113 223.5 113c61.333 0 118 -20 170 -60s106.667 -106 164 -198
c45.333 88 94.666 153.333 147.999 196s111.666 64 174.999 64c92.667 0 171.167 -39.5 235.5 -118.5s96.5 -176.833 96.5 -293.5c0 -122 -28.667 -220.667 -86 -296s-131.666 -113 -222.999 -113c-62 0 -118.833 19.5 -170.5 58.5s-106.834 104.833 -165.501 197.5z" />
    <glyph glyph-name="integral" unicode="&#x222b;" horiz-adv-x="1186" 
d="M342 -252c68 0 108.334 213 121.001 639c2 90.667 4 161 6 211c10.667 338.667 51.667 582.667 123 732s180.666 224 327.999 224c65.333 0 117.833 -16.333 157.5 -49s59.5 -75.667 59.5 -129c0 -40 -12.667 -72.167 -38 -96.5s-58.666 -36.5 -99.999 -36.5
c-30.667 0 -56.334 8 -77.001 24s-34.334 38.667 -41.001 68c-3.33301 13.333 -5.66602 31.333 -6.99902 54c-2 30.667 -12 46.334 -30 47.001c-66 0 -105.667 -211 -119 -633l-6 -178c-7.33301 -197.333 -17.666 -345.5 -30.999 -444.5s-33 -182.5 -59 -250.5
c-37.333 -98.667 -86.833 -173.834 -148.5 -225.501s-133.167 -77.5 -214.5 -77.5c-64 0 -116.167 16.333 -156.5 49s-60.5 75 -60.5 127c0 41.333 13 74.333 39 99s61 37 105 37c33.333 0 61.666 -10.5 84.999 -31.5s35 -44.833 35 -71.5c0 -38.667 2 -63 6 -73
s11.667 -15 23 -15z" />
    <glyph glyph-name="approxequal" unicode="&#x2248;" horiz-adv-x="1706" 
d="M1530 596l-0.00292969 -219c-70.667 -48 -136.667 -83.167 -198 -105.5s-121.666 -33.5 -180.999 -33.5c-63.333 0 -158.833 22.167 -286.5 66.5s-228.167 66.5 -301.5 66.5c-56 0 -114.167 -12.333 -174.5 -37s-130.5 -65 -210.5 -121v219
c74 48.667 142.833 84.667 206.5 108s123.834 35 180.501 35c82.667 0 187.834 -21.833 315.501 -65.5s219.167 -65.5 274.5 -65.5c57.333 0 115.333 11.833 174 35.5s125.667 62.5 201 116.5zM1530 1008l0.000976562 -220c-70.667 -47.333 -136.167 -82 -196.5 -104
s-120.5 -33 -180.5 -33c-62.667 0 -158 21.833 -286 65.5s-229.333 65.5 -304 65.5c-54.667 0 -111.334 -11.667 -170.001 -35s-130.334 -64 -215.001 -122v219c71.333 47.333 139.333 83 204 107s125.667 36 183 36c83.333 0 188.833 -21.833 316.5 -65.5
s218.834 -65.5 273.501 -65.5c56 0 113 11.667 171 35s126 62.333 204 117z" />
    <glyph glyph-name="notequal" unicode="&#x2260;" horiz-adv-x="1706" 
d="M1198 1233l148 -119l-154 -192h260v-191h-389l-191 -239h580v-193h-707l-245 -309l-148 119l154 190h-252v193h377l190 239h-567v191h696z" />
    <glyph glyph-name="lessequal" unicode="&#x2264;" horiz-adv-x="1706" 
d="M258 195h1192v-197h-1192v197zM1448 1241v-209l-834 -264l834 -262v-209l-1190 385v174z" />
    <glyph glyph-name="greaterequal" unicode="&#x2265;" horiz-adv-x="1706" 
d="M258 195h1192v-197h-1192v197zM260 1241l1188 -385v-174l-1188 -385v209l832 262l-832 264v209z" />
    <glyph glyph-name="lozenge" unicode="&#x25ca;" horiz-adv-x="1012" 
d="M506 1409l-385 -817l385 -825l385 825zM506 1653l500 -1061l-500 -1069l-500 1069z" />
    <glyph glyph-name="apple" unicode="&#xf000;" horiz-adv-x="1618" 
d="M836 1216c-0.666992 4 -1.16699 8.66895 -1.5 14.002s-0.5 13 -0.5 23c0 82.667 31.667 159.167 95 229.5s142 114.166 236 131.499c0.666992 -6.66699 1.16699 -14.334 1.5 -23.001s0.5 -21.667 0.5 -39c0 -87.333 -34.5 -165.5 -103.5 -234.5
s-136.833 -103.5 -203.5 -103.5h-8c-2 0 -4.5 0.333008 -7.5 1s-5.83301 1 -8.5 1zM1505 403.002c-76 -164.667 -144.336 -278.834 -205.003 -342.501s-128.667 -95.5 -204 -95.5c-33.333 0 -77.166 11 -131.499 33s-95.166 33 -122.499 33c-30 0 -73.667 -11 -131 -33
s-99.666 -33 -126.999 -33c-42.667 0 -85.5 14.667 -128.5 44s-86.167 73.333 -129.5 132c-68 93.333 -120.5 191.833 -157.5 295.5s-55.5 203.834 -55.5 300.501c0 146 41.667 264.833 125 356.5s191 137.5 323 137.5c45.333 0 97 -11.333 155 -34s99.333 -34 124 -34
c22.667 0 63.167 11.667 121.5 35s109.166 35 152.499 35c73.333 0 139.333 -13.333 198 -40s112.334 -68 161.001 -124c-68 -43.333 -118.5 -91.833 -151.5 -145.5s-49.5 -114.5 -49.5 -182.5c0 -75.333 20 -142 60 -200s97.667 -104 173 -138z" />
    <glyph glyph-name="fi" unicode="&#xf001;" horiz-adv-x="1194" 
d="M770 1188v233h307v-233h-307zM770 0v1053h307v-1053h-307zM166 0l-0.000976562 848.001h-166v205h166c0 4.66699 -0.333008 11.667 -1 21s-1 16 -1 20c0 120 30 209 90 267s152.667 87 278 87c19.333 0 40.833 -0.833008 64.5 -2.5s50.167 -4.5 79.5 -8.5v-210h-5
c-24 2.66699 -41.667 4 -53 4c-57.333 0 -99.166 -12 -125.499 -36s-39.5 -62.667 -39.5 -116c0 -2.66699 0.333008 -6.83398 1 -12.501s1 -10.167 1 -13.5h221v-205h-215v-848h-295z" />
    <glyph glyph-name="fl" unicode="&#xf002;" horiz-adv-x="1194" 
d="M770 0v1421h307v-1421h-307zM166 0l-0.000976562 848.001h-166v205h166c0 4.66699 -0.333008 11.667 -1 21s-1 16 -1 20c0 120 30 209 90 267s152.667 87 278 87c19.333 0 40.833 -0.833008 64.5 -2.5s50.167 -4.5 79.5 -8.5v-210h-5c-24 2.66699 -41.667 4 -53 4
c-57.333 0 -99.166 -12 -125.499 -36s-39.5 -62.667 -39.5 -116c0 -2.66699 0.333008 -6.83398 1 -12.501s1 -10.167 1 -13.5h221v-205h-215v-848h-295z" />
    <glyph glyph-name=".null" horiz-adv-x="0" 
 />
    <glyph glyph-name="nonmarkingreturn" horiz-adv-x="623" 
 />
    </font>
</defs>
</svg>
